<svg xmlns="http://www.w3.org/2000/svg" xmlns:xlink="http://www.w3.org/1999/xlink" viewBox="0 0 800.68 486.3"><defs><style>.cls-1{fill:none;}.cls-2{isolation:isolate;}.cls-3{clip-path:url(#clip-path);}.cls-10,.cls-100,.cls-101,.cls-102,.cls-103,.cls-104,.cls-105,.cls-106,.cls-107,.cls-108,.cls-109,.cls-110,.cls-111,.cls-112,.cls-113,.cls-114,.cls-115,.cls-116,.cls-117,.cls-118,.cls-119,.cls-12,.cls-120,.cls-121,.cls-122,.cls-123,.cls-125,.cls-126,.cls-127,.cls-128,.cls-129,.cls-130,.cls-131,.cls-132,.cls-133,.cls-134,.cls-135,.cls-136,.cls-137,.cls-138,.cls-139,.cls-14,.cls-140,.cls-141,.cls-142,.cls-143,.cls-144,.cls-145,.cls-146,.cls-147,.cls-148,.cls-15,.cls-150,.cls-151,.cls-152,.cls-153,.cls-154,.cls-155,.cls-156,.cls-157,.cls-158,.cls-159,.cls-16,.cls-160,.cls-161,.cls-162,.cls-163,.cls-164,.cls-165,.cls-166,.cls-167,.cls-168,.cls-169,.cls-17,.cls-170,.cls-171,.cls-172,.cls-173,.cls-18,.cls-19,.cls-20,.cls-21,.cls-22,.cls-23,.cls-24,.cls-25,.cls-26,.cls-27,.cls-28,.cls-29,.cls-30,.cls-31,.cls-32,.cls-33,.cls-34,.cls-35,.cls-36,.cls-37,.cls-38,.cls-39,.cls-4,.cls-40,.cls-41,.cls-42,.cls-43,.cls-44,.cls-45,.cls-46,.cls-47,.cls-48,.cls-49,.cls-50,.cls-51,.cls-52,.cls-53,.cls-54,.cls-55,.cls-56,.cls-57,.cls-58,.cls-59,.cls-6,.cls-60,.cls-61,.cls-62,.cls-63,.cls-64,.cls-65,.cls-66,.cls-67,.cls-68,.cls-69,.cls-70,.cls-71,.cls-72,.cls-73,.cls-74,.cls-75,.cls-76,.cls-77,.cls-78,.cls-79,.cls-80,.cls-81,.cls-82,.cls-83,.cls-84,.cls-85,.cls-86,.cls-87,.cls-88,.cls-89,.cls-9,.cls-90,.cls-91,.cls-92,.cls-93,.cls-94,.cls-95,.cls-96,.cls-97,.cls-98,.cls-99{fill-rule:evenodd;}.cls-4{fill:url(#Áåçûìÿííûé_ãðàäèåíò_368);}.cls-5{fill:#09b9ea;}.cls-6,.cls-7{fill:#0970c0;}.cls-8,.cls-9{fill:#095cc0;}.cls-10,.cls-11{fill:#09ffff;}.cls-12,.cls-13{fill:#92ffff;}.cls-14{fill:url(#Áåçûìÿííûé_ãðàäèåíò_202);}.cls-15{fill:#362072;opacity:0.3;}.cls-100,.cls-101,.cls-102,.cls-104,.cls-105,.cls-106,.cls-107,.cls-109,.cls-115,.cls-116,.cls-117,.cls-119,.cls-120,.cls-121,.cls-122,.cls-130,.cls-131,.cls-132,.cls-133,.cls-134,.cls-146,.cls-15,.cls-151,.cls-152,.cls-155,.cls-156,.cls-157,.cls-159,.cls-161,.cls-162,.cls-164,.cls-166,.cls-167,.cls-169,.cls-21,.cls-22,.cls-23,.cls-26,.cls-27,.cls-28,.cls-29,.cls-30,.cls-31,.cls-32,.cls-38,.cls-39,.cls-40,.cls-41,.cls-42,.cls-43,.cls-44,.cls-45,.cls-46,.cls-50,.cls-51,.cls-53,.cls-54,.cls-55,.cls-56,.cls-57,.cls-58,.cls-59,.cls-68,.cls-72,.cls-74,.cls-75,.cls-76,.cls-77,.cls-78,.cls-79,.cls-80,.cls-82,.cls-84,.cls-85,.cls-87,.cls-88,.cls-89,.cls-90,.cls-91,.cls-92,.cls-93,.cls-94,.cls-95,.cls-96,.cls-97,.cls-98,.cls-99{mix-blend-mode:multiply;}.cls-16{fill:url(#Áåçûìÿííûé_ãðàäèåíò_99);}.cls-17{fill:#a2bbff;}.cls-18{fill:url(#Áåçûìÿííûé_ãðàäèåíò_99-2);}.cls-19{fill:#a5e5f6;}.cls-140,.cls-141,.cls-19,.cls-33,.cls-60{mix-blend-mode:soft-light;}.cls-110,.cls-113,.cls-118,.cls-146,.cls-149,.cls-151,.cls-152,.cls-157,.cls-159,.cls-161,.cls-162,.cls-167,.cls-169,.cls-171,.cls-19,.cls-47,.cls-61,.cls-73,.cls-81,.cls-83{opacity:0.5;}.cls-20{fill:url(#Áåçûìÿííûé_ãðàäèåíò_231);}.cls-21{fill:url(#Áåçûìÿííûé_ãðàäèåíò_149);}.cls-22{fill:url(#Áåçûìÿííûé_ãðàäèåíò_149-2);}.cls-23{fill:url(#Áåçûìÿííûé_ãðàäèåíò_149-3);}.cls-24{fill:#8b89a4;}.cls-103,.cls-108,.cls-145,.cls-148,.cls-153,.cls-165,.cls-24,.cls-48,.cls-49,.cls-52,.cls-62,.cls-70,.cls-71,.cls-92{opacity:0.2;}.cls-25{fill:#7f609c;}.cls-26{fill:url(#Áåçûìÿííûé_ãðàäèåíò_149-4);}.cls-27{fill:url(#Áåçûìÿííûé_ãðàäèåíò_149-5);}.cls-28{fill:url(#Áåçûìÿííûé_ãðàäèåíò_149-6);}.cls-29{fill:url(#Áåçûìÿííûé_ãðàäèåíò_149-7);}.cls-30{fill:url(#Áåçûìÿííûé_ãðàäèåíò_149-8);}.cls-31{fill:url(#Áåçûìÿííûé_ãðàäèåíò_149-9);}.cls-32{fill:url(#Áåçûìÿííûé_ãðàäèåíò_149-10);}.cls-33{fill:#a6aeb8;}.cls-34{fill:#604b88;}.cls-35{fill:url(#Áåçûìÿííûé_ãðàäèåíò_56);}.cls-36{fill:url(#Áåçûìÿííûé_ãðàäèåíò_136);}.cls-37{fill:url(#Áåçûìÿííûé_ãðàäèåíò_128);}.cls-38{fill:url(#Áåçûìÿííûé_ãðàäèåíò_149-11);}.cls-39{fill:url(#Áåçûìÿííûé_ãðàäèåíò_149-12);}.cls-40{fill:url(#Áåçûìÿííûé_ãðàäèåíò_149-13);}.cls-41{fill:url(#Áåçûìÿííûé_ãðàäèåíò_149-14);}.cls-42{fill:url(#Áåçûìÿííûé_ãðàäèåíò_149-15);}.cls-43{fill:url(#Áåçûìÿííûé_ãðàäèåíò_149-16);}.cls-44{fill:url(#Áåçûìÿííûé_ãðàäèåíò_149-17);}.cls-45{fill:url(#Áåçûìÿííûé_ãðàäèåíò_149-18);}.cls-46{fill:url(#Áåçûìÿííûé_ãðàäèåíò_149-19);}.cls-47{fill:#5c367d;}.cls-48,.cls-73{fill:#726da7;}.cls-49{fill:#81462f;}.cls-50{fill:url(#Áåçûìÿííûé_ãðàäèåíò_149-20);}.cls-51{fill:url(#Áåçûìÿííûé_ãðàäèåíò_149-21);}.cls-52{fill:#b33a4a;}.cls-53{fill:url(#Áåçûìÿííûé_ãðàäèåíò_149-22);}.cls-54{fill:url(#Áåçûìÿííûé_ãðàäèåíò_149-23);}.cls-55{fill:url(#Áåçûìÿííûé_ãðàäèåíò_149-24);}.cls-56{fill:url(#Áåçûìÿííûé_ãðàäèåíò_149-25);}.cls-57{fill:url(#Áåçûìÿííûé_ãðàäèåíò_149-26);}.cls-58{fill:url(#Áåçûìÿííûé_ãðàäèåíò_149-27);}.cls-59{fill:url(#Áåçûìÿííûé_ãðàäèåíò_149-28);}.cls-60{fill:#8897c0;}.cls-61,.cls-62,.cls-66{fill:#8b3386;}.cls-110,.cls-63,.cls-67{fill:#6d335b;}.cls-63{opacity:0.83;}.cls-64{fill:#5b3762;}.cls-112,.cls-64,.cls-65{opacity:0.81;}.cls-65{fill:#462a58;}.cls-68{fill:#401469;opacity:0.58;}.cls-69{fill:url(#Áåçûìÿííûé_ãðàäèåíò_60);}.cls-70,.cls-83{fill:#7c68a2;}.cls-71{fill:#ff722a;}.cls-72{fill:url(#Áåçûìÿííûé_ãðàäèåíò_149-29);}.cls-74{fill:url(#Áåçûìÿííûé_ãðàäèåíò_149-30);}.cls-75{fill:url(#Áåçûìÿííûé_ãðàäèåíò_149-31);}.cls-76{fill:url(#Áåçûìÿííûé_ãðàäèåíò_149-32);}.cls-77{fill:url(#Áåçûìÿííûé_ãðàäèåíò_149-33);}.cls-78{fill:url(#Áåçûìÿííûé_ãðàäèåíò_149-34);}.cls-79{fill:url(#Áåçûìÿííûé_ãðàäèåíò_149-35);}.cls-80{fill:url(#Áåçûìÿííûé_ãðàäèåíò_149-36);}.cls-81{fill:#593b55;}.cls-82{fill:url(#Áåçûìÿííûé_ãðàäèåíò_149-37);}.cls-84{fill:url(#Áåçûìÿííûé_ãðàäèåíò_149-38);}.cls-85{fill:url(#Áåçûìÿííûé_ãðàäèåíò_149-39);}.cls-86{fill:#202;}.cls-87{fill:url(#Áåçûìÿííûé_ãðàäèåíò_149-40);}.cls-88{fill:url(#Áåçûìÿííûé_ãðàäèåíò_149-41);}.cls-89{fill:url(#Áåçûìÿííûé_ãðàäèåíò_149-42);}.cls-90{fill:url(#Áåçûìÿííûé_ãðàäèåíò_149-43);}.cls-91{fill:url(#Áåçûìÿííûé_ãðàäèåíò_149-44);}.cls-92{fill:url(#Áåçûìÿííûé_ãðàäèåíò_135);}.cls-93{fill:url(#Áåçûìÿííûé_ãðàäèåíò_149-45);}.cls-94{fill:url(#Áåçûìÿííûé_ãðàäèåíò_149-46);}.cls-95{fill:url(#Áåçûìÿííûé_ãðàäèåíò_149-47);}.cls-96{fill:url(#Áåçûìÿííûé_ãðàäèåíò_149-48);}.cls-97{fill:url(#Áåçûìÿííûé_ãðàäèåíò_149-49);}.cls-98{fill:url(#Áåçûìÿííûé_ãðàäèåíò_149-50);}.cls-99{fill:url(#Áåçûìÿííûé_ãðàäèåíò_149-51);}.cls-100{fill:url(#Áåçûìÿííûé_ãðàäèåíò_149-52);}.cls-101{fill:url(#Áåçûìÿííûé_ãðàäèåíò_149-53);}.cls-102{fill:url(#Áåçûìÿííûé_ãðàäèåíò_149-54);}.cls-103{fill:#ff4824;}.cls-104{fill:url(#Áåçûìÿííûé_ãðàäèåíò_149-55);}.cls-105{fill:url(#Áåçûìÿííûé_ãðàäèåíò_149-56);}.cls-106{fill:url(#Áåçûìÿííûé_ãðàäèåíò_149-57);}.cls-107{fill:url(#Áåçûìÿííûé_ãðàäèåíò_149-58);}.cls-108{fill:#928986;}.cls-109{fill:url(#Áåçûìÿííûé_ãðàäèåíò_149-59);}.cls-111,.cls-112{fill:#4a2d54;}.cls-113{fill:#37154f;}.cls-114{fill:url(#Áåçûìÿííûé_ãðàäèåíò_231-2);}.cls-115{fill:url(#Áåçûìÿííûé_ãðàäèåíò_149-60);}.cls-116{fill:url(#Áåçûìÿííûé_ãðàäèåíò_149-61);}.cls-117{fill:url(#Áåçûìÿííûé_ãðàäèåíò_149-62);}.cls-118{fill:#6558b1;}.cls-119{fill:url(#Áåçûìÿííûé_ãðàäèåíò_149-63);}.cls-120{fill:url(#Áåçûìÿííûé_ãðàäèåíò_149-64);}.cls-121{fill:url(#Áåçûìÿííûé_ãðàäèåíò_149-65);}.cls-122{fill:#5f3464;}.cls-123{fill:#7570a9;}.cls-124{mix-blend-mode:screen;fill:url(#Áåçûìÿííûé_ãðàäèåíò_207);}.cls-125,.cls-171{fill:#16011a;}.cls-126{fill:#3c1d47;}.cls-127{fill:#3c1d4f;}.cls-128{fill:url(#Áåçûìÿííûé_ãðàäèåíò_147);}.cls-129{fill:url(#Áåçûìÿííûé_ãðàäèåíò_198);}.cls-130{fill:url(#Áåçûìÿííûé_ãðàäèåíò_169);}.cls-131{fill:url(#Áåçûìÿííûé_ãðàäèåíò_169-2);}.cls-132{fill:url(#Áåçûìÿííûé_ãðàäèåíò_169-3);}.cls-133{fill:url(#Áåçûìÿííûé_ãðàäèåíò_169-4);}.cls-134{fill:url(#Áåçûìÿííûé_ãðàäèåíò_178);}.cls-135{fill:#1a002e;}.cls-136{fill:url(#Áåçûìÿííûé_ãðàäèåíò_60-2);}.cls-137{fill:#6a81ff;}.cls-138{fill:url(#Áåçûìÿííûé_ãðàäèåíò_32);}.cls-139{fill:url(#Áåçûìÿííûé_ãðàäèåíò_32-2);}.cls-140{fill:#b0b8ff;}.cls-141{fill:#cfd4ff;}.cls-142{fill:#190031;}.cls-143{fill:#281147;}.cls-144{fill:url(#Áåçûìÿííûé_ãðàäèåíò_159);}.cls-145{fill:#9081cf;}.cls-146{fill:url(#Áåçûìÿííûé_ãðàäèåíò_149-66);}.cls-147{fill:url(#Áåçûìÿííûé_ãðàäèåíò_60-3);}.cls-148{fill:#6d81e5;}.cls-150{fill:url(#Áåçûìÿííûé_ãðàäèåíò_128-2);}.cls-151{fill:url(#Áåçûìÿííûé_ãðàäèåíò_149-67);}.cls-152{fill:url(#Áåçûìÿííûé_ãðàäèåíò_149-68);}.cls-153{fill:#7f757c;}.cls-154{fill:url(#Áåçûìÿííûé_ãðàäèåíò_128-3);}.cls-155{fill:url(#Áåçûìÿííûé_ãðàäèåíò_149-69);}.cls-156{fill:url(#Áåçûìÿííûé_ãðàäèåíò_149-70);}.cls-157{fill:url(#Áåçûìÿííûé_ãðàäèåíò_158);}.cls-158{fill:url(#Áåçûìÿííûé_ãðàäèåíò_128-4);}.cls-159{fill:url(#Áåçûìÿííûé_ãðàäèåíò_149-71);}.cls-160{fill:url(#Áåçûìÿííûé_ãðàäèåíò_128-5);}.cls-161{fill:url(#Áåçûìÿííûé_ãðàäèåíò_149-72);}.cls-162{fill:url(#Áåçûìÿííûé_ãðàäèåíò_149-73);}.cls-163{fill:url(#Áåçûìÿííûé_ãðàäèåíò_128-6);}.cls-164{fill:url(#Áåçûìÿííûé_ãðàäèåíò_149-74);}.cls-165{fill:#8b89b3;}.cls-166{fill:url(#Áåçûìÿííûé_ãðàäèåíò_149-75);}.cls-167{fill:url(#Áåçûìÿííûé_ãðàäèåíò_158-2);}.cls-168{fill:url(#Áåçûìÿííûé_ãðàäèåíò_128-7);}.cls-169{fill:url(#Áåçûìÿííûé_ãðàäèåíò_149-76);}.cls-170{fill:#5c489a;}.cls-172{fill:#9897ef;}.cls-173{fill:#b38bff;}</style><clipPath id="clip-path" transform="translate(0.68 0.1)"><rect class="cls-1" width="800" height="400"/></clipPath><linearGradient id="Áåçûìÿííûé_ãðàäèåíò_368" x1="400.34" y1="384.1" x2="400.34" y2="0.1" gradientUnits="userSpaceOnUse"><stop offset="0" stop-color="#c5aeff"/><stop offset="0.11" stop-color="#aea4f3"/><stop offset="0.34" stop-color="#738ad3"/><stop offset="0.6" stop-color="#2c6cae"/><stop offset="0.82" stop-color="#2d347d"/><stop offset="1" stop-color="#2e0452"/></linearGradient><linearGradient id="Áåçûìÿííûé_ãðàäèåíò_202" x1="390.6" y1="340.72" x2="390.6" y2="224.67" gradientUnits="userSpaceOnUse"><stop offset="0.01" stop-color="#5c44ab"/><stop offset="1" stop-color="#6583ff"/></linearGradient><linearGradient id="Áåçûìÿííûé_ãðàäèåíò_99" x1="333" y1="347.35" x2="333" y2="152.35" gradientUnits="userSpaceOnUse"><stop offset="0.01" stop-color="#5c44ab"/><stop offset="1" stop-color="#806fb3"/></linearGradient><linearGradient id="Áåçûìÿííûé_ãðàäèåíò_99-2" x1="446.71" y1="348.6" x2="446.71" y2="220.65" xlink:href="#Áåçûìÿííûé_ãðàäèåíò_99"/><linearGradient id="Áåçûìÿííûé_ãðàäèåíò_231" x1="540" y1="368.85" x2="540" y2="129.35" gradientUnits="userSpaceOnUse"><stop offset="0.01" stop-color="#571e63"/><stop offset="1" stop-color="#4c3b8f"/></linearGradient><linearGradient id="Áåçûìÿííûé_ãðàäèåíò_149" x1="532.24" y1="247.61" x2="612.25" y2="247.61" gradientUnits="userSpaceOnUse"><stop offset="0" stop-color="#c77cbd"/><stop offset="1" stop-color="#974577"/></linearGradient><linearGradient id="Áåçûìÿííûé_ãðàäèåíò_149-2" x1="477.02" y1="268.94" x2="499.01" y2="268.94" xlink:href="#Áåçûìÿííûé_ãðàäèåíò_149"/><linearGradient id="Áåçûìÿííûé_ãðàäèåíò_149-3" x1="492.01" y1="255.91" x2="546.68" y2="255.91" xlink:href="#Áåçûìÿííûé_ãðàäèåíò_149"/><linearGradient id="Áåçûìÿííûé_ãðàäèåíò_149-4" x1="532.24" y1="243.22" x2="553.81" y2="243.22" xlink:href="#Áåçûìÿííûé_ãðàäèåíò_149"/><linearGradient id="Áåçûìÿííûé_ãðàäèåíò_149-5" x1="573.18" y1="206.08" x2="591.2" y2="206.08" xlink:href="#Áåçûìÿííûé_ãðàäèåíò_149"/><linearGradient id="Áåçûìÿííûé_ãðàäèåíò_149-6" x1="513.62" y1="203.09" x2="524.2" y2="203.09" xlink:href="#Áåçûìÿííûé_ãðàäèåíò_149"/><linearGradient id="Áåçûìÿííûé_ãðàäèåíò_149-7" x1="485.25" y1="313.1" x2="546.68" y2="313.1" xlink:href="#Áåçûìÿííûé_ãðàäèåíò_149"/><linearGradient id="Áåçûìÿííûé_ãðàäèåíò_149-8" x1="546.68" y1="302.43" x2="560.38" y2="302.43" xlink:href="#Áåçûìÿííûé_ãðàäèåíò_149"/><linearGradient id="Áåçûìÿííûé_ãðàäèåíò_149-9" x1="498.03" y1="317.86" x2="522.18" y2="317.86" xlink:href="#Áåçûìÿííûé_ãðàäèåíò_149"/><linearGradient id="Áåçûìÿííûé_ãðàäèåíò_149-10" x1="544.43" y1="193.18" x2="575.84" y2="193.18" xlink:href="#Áåçûìÿííûé_ãðàäèåíò_149"/><linearGradient id="Áåçûìÿííûé_ãðàäèåíò_56" x1="690.93" y1="400.1" x2="690.93" y2="0.1" gradientUnits="userSpaceOnUse"><stop offset="0.01" stop-color="#1b0033"/><stop offset="1" stop-color="#340023"/></linearGradient><linearGradient id="Áåçûìÿííûé_ãðàäèåíò_136" x1="617.66" y1="400.1" x2="617.66" y2="82.43" gradientUnits="userSpaceOnUse"><stop offset="0.01" stop-color="#40135b"/><stop offset="1" stop-color="#432c81"/></linearGradient><linearGradient id="Áåçûìÿííûé_ãðàäèåíò_128" x1="650.02" y1="367.85" x2="650.02" y2="20.43" gradientUnits="userSpaceOnUse"><stop offset="0.01" stop-color="#3b003d"/><stop offset="1" stop-color="#461d54"/></linearGradient><linearGradient id="Áåçûìÿííûé_ãðàäèåíò_149-11" x1="658.81" y1="390.55" x2="658.81" y2="137.1" xlink:href="#Áåçûìÿííûé_ãðàäèåíò_149"/><linearGradient id="Áåçûìÿííûé_ãðàäèåíò_149-12" x1="724.61" y1="394.54" x2="724.61" y2="127.1" xlink:href="#Áåçûìÿííûé_ãðàäèåíò_149"/><linearGradient id="Áåçûìÿííûé_ãðàäèåíò_149-13" x1="729.45" y1="161.1" x2="729.45" y2="10.43" xlink:href="#Áåçûìÿííûé_ãðàäèåíò_149"/><linearGradient id="Áåçûìÿííûé_ãðàäèåíò_149-14" x1="783.58" y1="396.92" x2="783.58" y2="0.1" xlink:href="#Áåçûìÿííûé_ãðàäèåíò_149"/><linearGradient id="Áåçûìÿííûé_ãðàäèåíò_149-15" x1="661.87" y1="297.64" x2="661.87" y2="20.43" xlink:href="#Áåçûìÿííûé_ãðàäèåíò_149"/><linearGradient id="Áåçûìÿííûé_ãðàäèåíò_149-16" x1="668.54" y1="159.03" x2="668.54" y2="82.72" xlink:href="#Áåçûìÿííûé_ãðàäèåíò_149"/><linearGradient id="Áåçûìÿííûé_ãðàäèåíò_149-17" x1="637.59" y1="196.37" x2="637.59" y2="82.43" xlink:href="#Áåçûìÿííûé_ãðàäèåíò_149"/><linearGradient id="Áåçûìÿííûé_ãðàäèåíò_149-18" x1="597.48" y1="353.85" x2="597.48" y2="222.2" xlink:href="#Áåçûìÿííûé_ãðàäèåíò_149"/><linearGradient id="Áåçûìÿííûé_ãðàäèåíò_149-19" x1="676.78" y1="394.54" x2="676.78" y2="169.76" xlink:href="#Áåçûìÿííûé_ãðàäèåíò_149"/><linearGradient id="Áåçûìÿííûé_ãðàäèåíò_149-20" x1="638.42" y1="367.85" x2="638.42" y2="184.1" xlink:href="#Áåçûìÿííûé_ãðàäèåíò_149"/><linearGradient id="Áåçûìÿííûé_ãðàäèåíò_149-21" x1="659.09" y1="154.43" x2="659.09" y2="115.79" xlink:href="#Áåçûìÿííûé_ãðàäèåíò_149"/><linearGradient id="Áåçûìÿííûé_ãðàäèåíò_149-22" x1="744.89" y1="259.79" x2="800.68" y2="259.79" xlink:href="#Áåçûìÿííûé_ãðàäèåíò_149"/><linearGradient id="Áåçûìÿííûé_ãðàäèåíò_149-23" x1="738.89" y1="297.48" x2="780.21" y2="297.48" xlink:href="#Áåçûìÿííûé_ãðàäèåíò_149"/><linearGradient id="Áåçûìÿííûé_ãðàäèåíò_149-24" x1="742.52" y1="45.23" x2="773.29" y2="45.23" xlink:href="#Áåçûìÿííûé_ãðàäèåíò_149"/><linearGradient id="Áåçûìÿííûé_ãðàäèåíò_149-25" x1="744.35" y1="92.81" x2="783.29" y2="92.81" xlink:href="#Áåçûìÿííûé_ãðàäèåíò_149"/><linearGradient id="Áåçûìÿííûé_ãðàäèåíò_149-26" x1="777.48" y1="310.09" x2="800.68" y2="310.09" xlink:href="#Áåçûìÿííûé_ãðàäèåíò_149"/><linearGradient id="Áåçûìÿííûé_ãðàäèåíò_149-27" x1="766.49" y1="69.75" x2="791.32" y2="69.75" xlink:href="#Áåçûìÿííûé_ãðàäèåíò_149"/><linearGradient id="Áåçûìÿííûé_ãðàäèåíò_149-28" x1="721.31" y1="48.25" x2="743.69" y2="48.25" xlink:href="#Áåçûìÿííûé_ãðàäèåíò_149"/><linearGradient id="Áåçûìÿííûé_ãðàäèåíò_60" x1="166.1" y1="400" x2="166.1" gradientUnits="userSpaceOnUse"><stop offset="0.01" stop-color="#1b0033"/><stop offset="1" stop-color="#410f37"/></linearGradient><linearGradient id="Áåçûìÿííûé_ãðàäèåíò_149-29" x1="84.96" y1="384.1" x2="84.96" y2="0" xlink:href="#Áåçûìÿííûé_ãðàäèåíò_149"/><linearGradient id="Áåçûìÿííûé_ãðàäèåíò_149-30" x1="23.24" y1="384.1" x2="23.24" y2="82.43" xlink:href="#Áåçûìÿííûé_ãðàäèåíò_149"/><linearGradient id="Áåçûìÿííûé_ãðàäèåíò_149-31" x1="52.2" y1="145.39" x2="52.2" y2="0.03" xlink:href="#Áåçûìÿííûé_ãðàäèåíò_149"/><linearGradient id="Áåçûìÿííûé_ãðàäèåíò_149-32" x1="139.5" y1="376.24" x2="139.5" y2="0" xlink:href="#Áåçûìÿííûé_ãðàäèåíò_149"/><linearGradient id="Áåçûìÿííûé_ãðàäèåíò_149-33" x1="98.19" y1="381.81" x2="98.19" y2="161.1" xlink:href="#Áåçûìÿííûé_ãðàäèåíò_149"/><linearGradient id="Áåçûìÿííûé_ãðàäèåíò_149-34" x1="202.98" y1="372.54" x2="202.98" y2="14.76" xlink:href="#Áåçûìÿííûé_ãðàäèåíò_149"/><linearGradient id="Áåçûìÿííûé_ãðàäèåíò_149-35" x1="206.83" y1="248.08" x2="206.83" y2="42.5" xlink:href="#Áåçûìÿííûé_ãðàäèåíò_149"/><linearGradient id="Áåçûìÿííûé_ãðàäèåíò_149-36" x1="257.03" y1="326.78" x2="257.03" y2="127.1" xlink:href="#Áåçûìÿííûé_ãðàäèåíò_149"/><linearGradient id="Áåçûìÿííûé_ãðàäèåíò_149-37" x1="100.67" y1="378.42" x2="100.67" y2="290.26" xlink:href="#Áåçûìÿííûé_ãðàäèåíò_149"/><linearGradient id="Áåçûìÿííûé_ãðàäèåíò_149-38" x1="226.12" y1="340.48" x2="252.81" y2="340.48" xlink:href="#Áåçûìÿííûé_ãðàäèåíò_149"/><linearGradient id="Áåçûìÿííûé_ãðàäèåíò_149-39" x1="171.03" y1="322.17" x2="196.38" y2="322.17" xlink:href="#Áåçûìÿííûé_ãðàäèåíò_149"/><linearGradient id="Áåçûìÿííûé_ãðàäèåíò_149-40" x1="144.18" y1="189.1" x2="144.18" y2="57.1" xlink:href="#Áåçûìÿííûé_ãðàäèåíò_149"/><linearGradient id="Áåçûìÿííûé_ãðàäèåíò_149-41" x1="106.17" y1="249.43" x2="106.17" y2="245.87" xlink:href="#Áåçûìÿííûé_ãðàäèåíò_149"/><linearGradient id="Áåçûìÿííûé_ãðàäèåíò_149-42" x1="206" y1="335.17" x2="206" y2="315" xlink:href="#Áåçûìÿííûé_ãðàäèåíò_149"/><linearGradient id="Áåçûìÿííûé_ãðàäèåíò_149-43" x1="210.91" y1="356.72" x2="210.91" y2="347.35" xlink:href="#Áåçûìÿííûé_ãðàäèåíò_149"/><linearGradient id="Áåçûìÿííûé_ãðàäèåíò_149-44" x1="155.67" y1="268.1" x2="155.67" y2="197.43" xlink:href="#Áåçûìÿííûé_ãðàäèåíò_149"/><linearGradient id="Áåçûìÿííûé_ãðàäèåíò_135" x1="169.23" y1="246.26" x2="169.23" y2="222.2" gradientUnits="userSpaceOnUse"><stop offset="0" stop-color="#974577"/><stop offset="1" stop-color="#c77cbd"/></linearGradient><linearGradient id="Áåçûìÿííûé_ãðàäèåíò_149-45" x1="118.44" y1="157.57" x2="118.44" y2="57.1" xlink:href="#Áåçûìÿííûé_ãðàäèåíò_149"/><linearGradient id="Áåçûìÿííûé_ãðàäèåíò_149-46" x1="199.93" y1="277.62" x2="199.93" y2="228.76" xlink:href="#Áåçûìÿííûé_ãðàäèåíò_149"/><linearGradient id="Áåçûìÿííûé_ãðàäèåíò_149-47" x1="65.38" y1="38.97" x2="65.38" y2="3.83" xlink:href="#Áåçûìÿííûé_ãðàäèåíò_149"/><linearGradient id="Áåçûìÿííûé_ãðàäèåíò_149-48" x1="56.43" y1="107.33" x2="56.43" y2="0.1" xlink:href="#Áåçûìÿííûé_ãðàäèåíò_149"/><linearGradient id="Áåçûìÿííûé_ãðàäèåíò_149-49" x1="90.51" y1="36.1" x2="90.51" y2="0" xlink:href="#Áåçûìÿííûé_ãðàäèåíò_149"/><linearGradient id="Áåçûìÿííûé_ãðàäèåíò_149-50" x1="23.24" y1="384.1" x2="23.24" y2="175.76" xlink:href="#Áåçûìÿííûé_ãðàäèåíò_149"/><linearGradient id="Áåçûìÿííûé_ãðàäèåíò_149-51" x1="199.8" y1="166.06" x2="199.8" y2="82.43" xlink:href="#Áåçûìÿííûé_ãðàäèåíò_149"/><linearGradient id="Áåçûìÿííûé_ãðàäèåíò_149-52" x1="229.54" y1="248.18" x2="229.54" y2="192.06" xlink:href="#Áåçûìÿííûé_ãðàäèåíò_149"/><linearGradient id="Áåçûìÿííûé_ãðàäèåíò_149-53" x1="169.42" y1="151.76" x2="186.78" y2="151.76" xlink:href="#Áåçûìÿííûé_ãðàäèåíò_149"/><linearGradient id="Áåçûìÿííûé_ãðàäèåíò_149-54" x1="229.79" y1="332.34" x2="274.68" y2="332.34" xlink:href="#Áåçûìÿííûé_ãðàäèåíò_149"/><linearGradient id="Áåçûìÿííûé_ãðàäèåíò_149-55" x1="73.64" y1="239.76" x2="93.24" y2="239.76" xlink:href="#Áåçûìÿííûé_ãðàäèåíò_149"/><linearGradient id="Áåçûìÿííûé_ãðàäèåíò_149-56" x1="64.99" y1="381.81" x2="64.99" y2="322.1" xlink:href="#Áåçûìÿííûé_ãðàäèåíò_149"/><linearGradient id="Áåçûìÿííûé_ãðàäèåíò_149-57" x1="31.71" y1="382.29" x2="31.71" y2="319.76" xlink:href="#Áåçûìÿííûé_ãðàäèåíò_149"/><linearGradient id="Áåçûìÿííûé_ãðàäèåíò_149-58" x1="105.62" y1="57.1" x2="105.62" y2="47.7" xlink:href="#Áåçûìÿííûé_ãðàäèåíò_149"/><linearGradient id="Áåçûìÿííûé_ãðàäèåíò_149-59" x1="240.29" y1="198.14" x2="255.07" y2="198.14" xlink:href="#Áåçûìÿííûé_ãðàäèåíò_149"/><linearGradient id="Áåçûìÿííûé_ãðàäèåíò_231-2" x1="296.44" y1="351.76" x2="296.44" y2="161.1" xlink:href="#Áåçûìÿííûé_ãðàäèåíò_231"/><linearGradient id="Áåçûìÿííûé_ãðàäèåíò_149-60" x1="288.79" y1="233.26" x2="288.79" y2="175.85" xlink:href="#Áåçûìÿííûé_ãðàäèåíò_149"/><linearGradient id="Áåçûìÿííûé_ãðàäèåíò_149-61" x1="282.04" y1="275.6" x2="282.04" y2="230.1" xlink:href="#Áåçûìÿííûé_ãðàäèåíò_149"/><linearGradient id="Áåçûìÿííûé_ãðàäèåíò_149-62" x1="314.65" y1="350.71" x2="314.65" y2="198.1" xlink:href="#Áåçûìÿííûé_ãðàäèåíò_149"/><linearGradient id="Áåçûìÿííûé_ãðàäèåíò_149-63" x1="281.92" y1="310.09" x2="281.92" y2="282.15" xlink:href="#Áåçûìÿííûé_ãðàäèåíò_149"/><linearGradient id="Áåçûìÿííûé_ãðàäèåíò_149-64" x1="269.99" y1="241.26" x2="269.99" y2="230.1" xlink:href="#Áåçûìÿííûé_ãðàäèåíò_149"/><linearGradient id="Áåçûìÿííûé_ãðàäèåíò_149-65" x1="286.19" y1="200.29" x2="292.25" y2="200.29" xlink:href="#Áåçûìÿííûé_ãðàäèåíò_149"/><radialGradient id="Áåçûìÿííûé_ãðàäèåíò_207" cx="-1263.8" cy="311.32" r="35.97" gradientTransform="translate(-348.38 -2719.14) rotate(-90) scale(2.39 2.37)" gradientUnits="userSpaceOnUse"><stop offset="0" stop-color="#0053c2"/><stop offset="0.13" stop-color="#004cb1"/><stop offset="0.38" stop-color="#003884"/><stop offset="0.73" stop-color="#001a3c"/><stop offset="1"/></radialGradient><linearGradient id="Áåçûìÿííûé_ãðàäèåíò_147" x1="400.68" y1="400.1" x2="400.68" y2="338.74" gradientUnits="userSpaceOnUse"><stop offset="0.01" stop-color="#2a0036"/><stop offset="0.29" stop-color="#2b0239"/><stop offset="0.49" stop-color="#2e0842"/><stop offset="0.65" stop-color="#341251"/><stop offset="0.81" stop-color="#3d2067"/><stop offset="0.95" stop-color="#473282"/><stop offset="1" stop-color="#4c3b8f"/></linearGradient><radialGradient id="Áåçûìÿííûé_ãðàäèåíò_198" cx="397.93" cy="337.5" r="120.25" gradientUnits="userSpaceOnUse"><stop offset="0" stop-color="#599dff"/><stop offset="1" stop-color="#632fd9"/></radialGradient><linearGradient id="Áåçûìÿííûé_ãðàäèåíò_169" x1="286.97" y1="400.1" x2="286.97" y2="342.73" gradientUnits="userSpaceOnUse"><stop offset="0" stop-color="#fff"/><stop offset="1" stop-color="#6d458b"/></linearGradient><linearGradient id="Áåçûìÿííûé_ãðàäèåíò_169-2" x1="512.23" y1="400.1" x2="512.23" y2="341.21" xlink:href="#Áåçûìÿííûé_ãðàäèåíò_169"/><linearGradient id="Áåçûìÿííûé_ãðàäèåíò_169-3" x1="542.63" y1="400.1" x2="542.63" y2="355.33" xlink:href="#Áåçûìÿííûé_ãðàäèåíò_169"/><linearGradient id="Áåçûìÿííûé_ãðàäèåíò_169-4" x1="313.09" y1="400.1" x2="313.09" y2="349.43" xlink:href="#Áåçûìÿííûé_ãðàäèåíò_169"/><linearGradient id="Áåçûìÿííûé_ãðàäèåíò_178" x1="251.94" y1="400.1" x2="251.94" y2="381.49" gradientUnits="userSpaceOnUse"><stop offset="0" stop-color="#9090a9"/><stop offset="1" stop-color="#402f5c"/></linearGradient><linearGradient id="Áåçûìÿííûé_ãðàäèåíò_60-2" x1="480.18" y1="389.97" x2="623.68" y2="389.97" xlink:href="#Áåçûìÿííûé_ãðàäèåíò_60"/><linearGradient id="Áåçûìÿííûé_ãðàäèåíò_32" x1="530.09" y1="400.1" x2="530.09" y2="382.47" gradientUnits="userSpaceOnUse"><stop offset="0" stop-color="#7c6de7"/><stop offset="0.37" stop-color="#7c71e6"/><stop offset="0.76" stop-color="#7b7ee1"/><stop offset="1" stop-color="#7b8add"/></linearGradient><linearGradient id="Áåçûìÿííûé_ãðàäèåíò_32-2" x1="266.25" y1="400.1" x2="266.25" y2="370.6" xlink:href="#Áåçûìÿííûé_ãðàäèåíò_32"/><linearGradient id="Áåçûìÿííûé_ãðàäèåíò_159" x1="500.1" y1="373.96" x2="646.25" y2="373.96" gradientUnits="userSpaceOnUse"><stop offset="0.01" stop-color="#1b0033"/><stop offset="1" stop-color="#180028"/></linearGradient><linearGradient id="Áåçûìÿííûé_ãðàäèåíò_149-66" x1="521.35" y1="377.89" x2="534.83" y2="377.89" xlink:href="#Áåçûìÿííûé_ãðàäèåíò_149"/><linearGradient id="Áåçûìÿííûé_ãðàäèåíò_60-3" x1="581.67" y1="390.09" x2="581.67" y2="381.49" xlink:href="#Áåçûìÿííûé_ãðàäèåíò_60"/><linearGradient id="Áåçûìÿííûé_ãðàäèåíò_128-2" x1="460" y1="375.78" x2="460" y2="349.65" gradientTransform="matrix(1, 0, 0, -0.86, 0.68, 700.28)" xlink:href="#Áåçûìÿííûé_ãðàäèåíò_128"/><linearGradient id="Áåçûìÿííûé_ãðàäèåíò_149-67" x1="449.34" y1="362.72" x2="470.66" y2="362.72" gradientTransform="matrix(1, 0, 0, -0.86, 0.68, 700.28)" xlink:href="#Áåçûìÿííûé_ãðàäèåíò_149"/><linearGradient id="Áåçûìÿííûé_ãðàäèåíò_149-68" x1="458.68" y1="371.81" x2="468.72" y2="371.81" gradientTransform="matrix(1, 0, 0, -0.86, 0.68, 700.28)" xlink:href="#Áåçûìÿííûé_ãðàäèåíò_149"/><linearGradient id="Áåçûìÿííûé_ãðàäèåíò_128-3" x1="432.86" y1="375.78" x2="432.86" y2="314.46" gradientTransform="matrix(1, 0, 0, -0.86, 0.68, 700.28)" xlink:href="#Áåçûìÿííûé_ãðàäèåíò_128"/><linearGradient id="Áåçûìÿííûé_ãðàäèåíò_149-69" x1="435.47" y1="375.78" x2="435.47" y2="314.46" gradientTransform="matrix(1, 0, 0, -0.86, 0.68, 700.28)" xlink:href="#Áåçûìÿííûé_ãðàäèåíò_149"/><linearGradient id="Áåçûìÿííûé_ãðàäèåíò_149-70" x1="433.3" y1="362.16" x2="445.18" y2="362.16" gradientTransform="matrix(1, 0, 0, -0.86, 0.68, 700.28)" xlink:href="#Áåçûìÿííûé_ãðàäèåíò_149"/><linearGradient id="Áåçûìÿííûé_ãðàäèåíò_158" x1="446.48" y1="375.78" x2="446.48" y2="348.54" gradientTransform="matrix(1, 0, 0, -0.86, 0.68, 700.28)" xlink:href="#Áåçûìÿííûé_ãðàäèåíò_135"/><linearGradient id="Áåçûìÿííûé_ãðàäèåíò_128-4" x1="399.47" y1="375.3" x2="399.47" y2="365.53" gradientTransform="matrix(1, 0, 0, -0.86, 0.68, 700.28)" xlink:href="#Áåçûìÿííûé_ãðàäèåíò_128"/><linearGradient id="Áåçûìÿííûé_ãðàäèåíò_149-71" x1="407.67" y1="372.55" x2="409.97" y2="372.55" gradientTransform="matrix(1, 0, 0, -0.86, 0.68, 700.28)" xlink:href="#Áåçûìÿííûé_ãðàäèåíò_149"/><linearGradient id="Áåçûìÿííûé_ãðàäèåíò_128-5" x1="460.68" y1="376.13" x2="460.68" y2="349.99" xlink:href="#Áåçûìÿííûé_ãðàäèåíò_128"/><linearGradient id="Áåçûìÿííûé_ãðàäèåíò_149-72" x1="450.02" y1="363.06" x2="471.34" y2="363.06" xlink:href="#Áåçûìÿííûé_ãðàäèåíò_149"/><linearGradient id="Áåçûìÿííûé_ãðàäèåíò_149-73" x1="459.36" y1="372.15" x2="469.4" y2="372.15" xlink:href="#Áåçûìÿííûé_ãðàäèåíò_149"/><linearGradient id="Áåçûìÿííûé_ãðàäèåíò_128-6" x1="433.54" y1="376.13" x2="433.54" y2="314.8" xlink:href="#Áåçûìÿííûé_ãðàäèåíò_128"/><linearGradient id="Áåçûìÿííûé_ãðàäèåíò_149-74" x1="436.15" y1="376.13" x2="436.15" y2="314.8" xlink:href="#Áåçûìÿííûé_ãðàäèåíò_149"/><linearGradient id="Áåçûìÿííûé_ãðàäèåíò_149-75" x1="433.98" y1="362.5" x2="445.86" y2="362.5" xlink:href="#Áåçûìÿííûé_ãðàäèåíò_149"/><linearGradient id="Áåçûìÿííûé_ãðàäèåíò_158-2" x1="447.16" y1="376.13" x2="447.16" y2="348.88" xlink:href="#Áåçûìÿííûé_ãðàäèåíò_135"/><linearGradient id="Áåçûìÿííûé_ãðàäèåíò_128-7" x1="400.15" y1="375.64" x2="400.15" y2="365.87" xlink:href="#Áåçûìÿííûé_ãðàäèåíò_128"/><linearGradient id="Áåçûìÿííûé_ãðàäèåíò_149-76" x1="408.35" y1="372.89" x2="410.65" y2="372.89" xlink:href="#Áåçûìÿííûé_ãðàäèåíò_149"/></defs><g class="cls-2"><g id="canyon"><g class="cls-3"><polygon class="cls-4" points="794.62 357.1 0 384.1 0 0.1 800.68 0.1 794.62 357.1"/><circle class="cls-5" cx="453.56" cy="67.17" r="0.79"/><circle class="cls-5" cx="438.3" cy="151.79" r="0.79"/><circle class="cls-5" cx="551.03" cy="193.81" r="0.79"/><circle class="cls-5" cx="573.29" cy="290.22" r="0.79"/><path class="cls-6" d="M501.62,161.51a.79.79,0,1,1-.79-.78A.79.79,0,0,1,501.62,161.51Z" transform="translate(0.68 0.1)"/><circle class="cls-7" cx="464.32" cy="143.68" r="0.79"/><circle class="cls-8" cx="418.13" cy="107.74" r="0.79"/><circle class="cls-8" cx="370.56" cy="48.91" r="0.79"/><circle class="cls-8" cx="463.53" cy="22.01" r="0.79"/><circle class="cls-8" cx="513.53" cy="160.82" r="0.79"/><path class="cls-9" d="M520.14,15.35a.79.79,0,1,1-.78-.79A.79.79,0,0,1,520.14,15.35Z" transform="translate(0.68 0.1)"/><path class="cls-10" d="M361.82,343.7a.79.79,0,1,1-.78-.79A.78.78,0,0,1,361.82,343.7Z" transform="translate(0.68 0.1)"/><circle class="cls-7" cx="548.22" cy="32.66" r="0.79"/><circle class="cls-7" cx="541.44" cy="136.96" r="0.79"/><circle class="cls-7" cx="340.56" cy="99.25" r="0.79"/><circle class="cls-7" cx="660.48" cy="25.61" r="0.79"/><circle class="cls-7" cx="382.1" cy="140.41" r="0.79"/><circle class="cls-7" cx="454.46" cy="353.55" r="0.79"/><path class="cls-6" d="M715,15.37a.79.79,0,1,1-.79-.78A.79.79,0,0,1,715,15.37Z" transform="translate(0.68 0.1)"/><circle class="cls-7" cx="392.4" cy="43.38" r="0.79"/><path class="cls-6" d="M545.35,243.8a.79.79,0,1,1-.78-.79A.79.79,0,0,1,545.35,243.8Z" transform="translate(0.68 0.1)"/><circle class="cls-7" cx="294.92" cy="135.44" r="0.79"/><circle class="cls-7" cx="312.77" cy="23.58" r="0.79"/><path class="cls-6" d="M480.46,209.07a.79.79,0,1,1-.78-.78A.78.78,0,0,1,480.46,209.07Z" transform="translate(0.68 0.1)"/><path class="cls-6" d="M419,79a.79.79,0,1,1-.79-.79A.78.78,0,0,1,419,79Z" transform="translate(0.68 0.1)"/><circle class="cls-7" cx="602.8" cy="266.69" r="0.79"/><circle class="cls-5" cx="557.35" cy="82.21" r="0.79"/><circle class="cls-7" cx="595.92" cy="88.74" r="0.79"/><path class="cls-6" d="M505.47,292.54a.79.79,0,0,1-1.58,0,.79.79,0,0,1,1.58,0Z" transform="translate(0.68 0.1)"/><circle class="cls-11" cx="358.03" cy="112.27" r="0.79"/><path class="cls-10" d="M431.58,121.67a.79.79,0,1,1-.78-.79A.78.78,0,0,1,431.58,121.67Z" transform="translate(0.68 0.1)"/><circle class="cls-11" cx="423.59" cy="22.79" r="0.79"/><circle class="cls-11" cx="290.87" cy="82.18" r="0.79"/><path class="cls-12" d="M478.74,235.91a.79.79,0,1,1-.78-.79A.78.78,0,0,1,478.74,235.91Z" transform="translate(0.68 0.1)"/><circle class="cls-11" cx="446.09" cy="51.36" r="0.79"/><circle class="cls-11" cx="595.13" cy="158.95" r="0.79"/><circle class="cls-11" cx="435.49" cy="238.58" r="0.79"/><circle class="cls-11" cx="326.92" cy="245.45" r="0.79"/><path class="cls-10" d="M594.45,10.78a.79.79,0,1,1-.79-.78A.79.79,0,0,1,594.45,10.78Z" transform="translate(0.68 0.1)"/><path class="cls-10" d="M541.11,67.05a.79.79,0,1,1-1.57,0,.79.79,0,1,1,1.57,0Z" transform="translate(0.68 0.1)"/><circle class="cls-11" cx="514.31" cy="112.27" r="0.79"/><circle class="cls-11" cx="433.04" cy="112.52" r="0.79"/><circle class="cls-11" cx="458.34" cy="249.73" r="0.79"/><circle class="cls-5" cx="436.29" cy="181.81" r="0.79"/><circle class="cls-7" cx="386.77" cy="149.61" r="0.79"/><circle class="cls-7" cx="349.58" cy="131.67" r="0.79"/><circle class="cls-8" cx="303.39" cy="95.73" r="0.79"/><circle class="cls-8" cx="255.82" cy="36.9" r="0.79"/><path class="cls-9" d="M348.9,9.91a.79.79,0,1,1-.79-.79A.78.78,0,0,1,348.9,9.91Z" transform="translate(0.68 0.1)"/><circle class="cls-8" cx="269.06" cy="214.31" r="0.79"/><path class="cls-9" d="M398.89,148.72a.79.79,0,1,1-.78-.78A.78.78,0,0,1,398.89,148.72Z" transform="translate(0.68 0.1)"/><circle class="cls-8" cx="405.3" cy="3.44" r="0.79"/><circle class="cls-7" cx="225.82" cy="87.25" r="0.79"/><circle class="cls-7" cx="267.36" cy="128.4" r="0.79"/><circle class="cls-7" cx="277.66" cy="31.37" r="0.79"/><path class="cls-6" d="M273.44,238.42a.79.79,0,0,1-1.58,0,.79.79,0,1,1,1.58,0Z" transform="translate(0.68 0.1)"/><circle class="cls-7" cx="180.18" cy="123.43" r="0.79"/><circle class="cls-7" cx="198.02" cy="11.58" r="0.79"/><circle class="cls-7" cx="304.17" cy="67.05" r="0.79"/><path class="cls-10" d="M243.4,100.17a.79.79,0,1,1-1.57,0,.79.79,0,1,1,1.57,0Z" transform="translate(0.68 0.1)"/><circle class="cls-11" cx="308.85" cy="10.79" r="0.79"/><circle class="cls-13" cx="363.89" cy="224" r="0.79"/><circle class="cls-11" cx="320.75" cy="226.58" r="0.79"/><circle class="cls-11" cx="212.18" cy="233.44" r="0.79"/><circle class="cls-11" cx="426.26" cy="55.14" r="0.79"/><circle class="cls-11" cx="399.57" cy="100.27" r="0.79"/><circle class="cls-11" cx="320.84" cy="106.06" r="0.79"/><circle class="cls-11" cx="343.6" cy="237.73" r="0.79"/><path class="cls-10" d="M540.94,233.86a.79.79,0,1,1-.79-.78A.79.79,0,0,1,540.94,233.86Z" transform="translate(0.68 0.1)"/><path class="cls-6" d="M650.86,134.56a.79.79,0,1,1-.78-.79A.78.78,0,0,1,650.86,134.56Z" transform="translate(0.68 0.1)"/><path class="cls-6" d="M586,99.83a.79.79,0,1,1-.79-.79A.79.79,0,0,1,586,99.83Z" transform="translate(0.68 0.1)"/><circle class="cls-7" cx="241.48" cy="20.17" r="0.79"/><circle class="cls-7" cx="530.42" cy="156.68" r="0.79"/><circle class="cls-7" cx="610.87" cy="183.4" r="0.79"/><circle class="cls-11" cx="646.34" cy="124.72" r="0.79"/><polygon class="cls-14" points="355.99 224.67 372.82 238.22 378.64 262.81 381.28 261.82 390.6 263.21 400.68 282.15 408.01 287.36 425.21 340.72 372.8 338.74 355.99 224.67"/><polygon class="cls-15" points="381.28 261.82 390.6 298.35 394.69 301.85 400.68 340.48 378.64 262.81 381.28 261.82"/><polygon class="cls-15" points="400.68 282.15 410.65 325.08 406.95 298.89 402.82 283.68 400.68 282.15"/><polygon class="cls-15" points="355.99 224.67 360.43 232.1 368.85 307.47 371.77 308.43 378.64 338.96 372.8 338.74 355.99 224.67"/><polygon class="cls-16" points="372.8 341.47 332.87 347.35 293.2 200.29 296.44 169.77 307.01 161.92 318.28 152.35 322.61 154.43 332.87 175.29 337.31 176.25 349.46 197.43 350.57 199.34 366.88 275.6 371.6 275.6 372.8 341.47"/><polygon class="cls-15" points="353.68 268.85 352.85 269.18 355.84 343 354.5 343.12 349.18 252.85 339.18 220.12 339.51 216.26 325.85 186.27 320.01 192.1 319.51 207.27 331.62 242.77 343.3 256.43 343.3 301.85 345.71 305.19 347.7 343.92 332.87 347.35 293.2 200.29 296.44 169.77 307.01 161.92 318.28 152.35 327.68 186.27 336.68 192.1 332.87 175.29 337.31 176.25 335.68 180.82 353.68 267.43 366.88 275.6 368.32 275.98 364.76 275.98 353.68 268.85"/><polygon class="cls-15" points="336.68 192.1 332.24 200.29 339.51 216.26 339.18 220.12 349.18 252.85 350.45 274.41 352.85 269.18 353.68 267.43 335.68 180.82 333.6 178.52 336.68 192.1"/><polygon class="cls-15" points="325.85 186.27 320.01 192.1 313.6 203.06 293.19 203.06 296.44 169.77 318.28 152.35 327.68 186.27 325.85 186.27"/><polygon class="cls-15" points="331.62 242.77 318.28 274.41 322.61 288.11 343.3 256.43 331.62 242.77"/><polygon class="cls-15" points="343.3 301.85 330.76 303.6 330.76 313.1 345.71 305.19 343.3 301.85"/><polygon class="cls-17" points="295.46 179.79 296.44 169.77 318.49 153.1 322.61 154.43 332.87 175.29 337.31 176.25 350.57 199.34 355.99 224.67 371.62 236.94 378.64 262.81 381.28 261.82 390.6 263.21 400.68 282.15 408.01 287.36 421.13 328.06 408.51 286.18 400.68 281.26 391.18 261.82 380.26 260.55 378.64 261.18 372.24 236.16 356.43 224 351.3 198.14 337.87 175.85 333.43 174.6 323.3 153.91 318.12 151.53 295.71 169.26 294.14 177.71 295.46 179.79"/><polygon class="cls-18" points="416.39 347.52 441.61 249.29 447.25 238.22 455.61 238.22 477.02 220.66 470.84 348.6 430.25 347.52 416.39 347.52"/><polygon class="cls-19" points="447.25 238.22 441.61 249.29 428.13 301.8 434.54 317.22 450.6 272.87 447.25 238.22"/><polygon class="cls-19" points="455.61 238.22 453.01 251.18 453.01 272.87 448.76 298.27 465.91 281.02 471.27 225.37 455.61 238.22"/><polygon class="cls-19" points="430.25 347.52 443.27 305.72 455.47 293.82 467.6 287.36 455.47 347.52 430.25 347.52"/><polygon class="cls-15" points="434.54 317.22 427.97 347.52 430.25 347.52 443.27 305.72 449.37 299.76 448.76 298.27 453.01 272.87 453.01 251.18 455.61 238.22 447.25 238.22 450.6 272.87 434.54 317.22"/><polygon class="cls-20" points="600.99 129.35 587.59 147.96 574.95 142.44 568.28 145.13 541.15 169.76 532.24 166.6 499.01 172.72 499.01 178.52 477.68 190.49 472.18 272.49 466.03 346.82 481.18 355.35 482.43 359.35 581.18 368.85 613.96 216.25 600.99 129.35"/><polygon class="cls-21" points="574.95 142.44 576.76 228.76 573.18 263.82 563.25 296.12 554.76 302.2 541.15 169.76 532.24 166.6 542.01 199.45 546.68 241.26 546.68 303.6 534.77 364.38 542.02 364.67 558.05 306.51 574.85 275.97 582.71 260.82 586.93 275.6 581.18 322.1 577.68 324.44 573.18 365.87 581.18 365.87 605.19 256.43 612.25 155.62 600.99 129.35 587.59 147.96 574.95 142.44"/><polygon class="cls-22" points="499.01 178.52 492.01 278.35 489.35 282.15 482.43 359.35 481.18 355.35 477.02 353.85 488.02 280.43 494.43 199.45 496.35 196.37 497.56 179.34 499.01 178.52"/><polygon class="cls-23" points="546.68 246.43 543.01 246.43 532.24 252.85 509.67 276.47 492.01 278.35 492.18 275.97 504.51 275.97 509.18 273.26 533.93 249.1 545.81 233.48 546.43 239.6 546.68 246.43"/><polygon class="cls-24" points="492.01 278.35 489.35 282.15 482.43 359.35 486.6 359.72 513.62 362.13 507.59 282.15 498.03 278.35 492.01 278.35"/><polygon class="cls-24" points="492.18 275.97 499.01 172.72 519.93 168.87 518.83 205.76 513.62 235.68 504.51 275.97 492.18 275.97"/><polygon class="cls-24" points="545.81 233.48 542.01 199.45 532.24 166.6 528.33 167.32 524.2 258.6 533.93 249.1 545.81 233.48"/><polygon class="cls-24" points="554.76 302.2 549.79 253.82 552.28 224.14 566.45 194.14 574.85 181.51 575.71 178.52 576.76 228.76 573.18 263.82 563.25 296.12 554.76 302.2"/><polygon class="cls-24" points="552.17 327.85 581.18 322.1 582.71 292.97 586.93 275.6 582.71 260.82 558.05 306.51 552.17 327.85"/><polygon class="cls-25" points="563.25 325.65 577.68 324.44 581.18 322.1 563.25 325.65"/><polygon class="cls-25" points="489.35 282.15 509.67 276.47 492.01 278.35 489.35 282.15"/><polygon class="cls-26" points="543.01 246.43 532.24 252.85 532.24 249.85 545.81 233.48 542.01 199.45 543.44 192.1 553.81 292.97 546.68 294.33 546.68 246.43 543.01 246.43"/><polygon class="cls-27" points="576.76 228.76 574.95 142.44 587.59 147.96 591.2 178.52 591.2 230.1 582.71 260.82 576.76 269.71 573.18 263.82 576.76 228.76"/><polygon class="cls-24" points="477.02 353.85 486.07 293.46 482.43 282.15 470.65 296.12 466.03 346.82 477.02 353.85"/><polygon class="cls-28" points="519.93 168.87 519.19 193.65 518.83 205.76 513.62 238.1 519.93 204.77 522.01 173.76 524.2 168.08 519.93 168.87"/><polygon class="cls-29" points="546.68 298.35 529.43 308.76 498.03 322.1 485.56 324.44 485.25 327.85 487.01 325.65 503.6 323.88 545.81 300.6 546.68 301.85 546.68 298.35"/><polygon class="cls-30" points="546.68 301.85 552.93 305.85 558.05 306.51 560.38 302.2 557.55 304.18 546.68 298.35 546.68 301.85"/><polygon class="cls-31" points="498.03 322.1 503.6 323.88 522.18 313.63 522.18 311.84 498.03 322.1"/><polygon class="cls-32" points="574.85 181.51 545.81 204.56 544.43 201.51 545.23 209.51 545.81 206.08 573.66 183.29 575.84 184.75 575.67 176.85 574.85 181.51"/><polygon class="cls-33" points="609.76 194.14 591.2 203.09 575.84 203.09 553.81 212.6 546.43 219.1 544.21 219.1 515.97 227.68 506.78 229.76 494.68 237.86 491.36 238.22 474.04 244.76 473.85 247.61 491.19 240.36 494.48 241.26 507.68 234.35 544.43 223.72 546.68 223.58 552.17 219.47 576.3 211.6 591.2 212.6 612.44 206.08 609.76 194.14"/><polygon class="cls-33" points="613.38 210.76 591.2 216.26 576.76 216.26 547.1 227.68 544.43 227.68 494.06 247.61 490.62 247.61 473.5 252.76 473.2 257.22 490.5 249.1 493.87 250.46 545.4 229.76 547.35 230.1 575.84 220.66 591.2 219.6 613.96 216.25 613.38 210.76"/><polygon class="cls-24" points="477.68 190.49 472.18 272.49 472.18 290.26 488.02 222.42 492.01 182.45 477.68 190.49"/><polygon class="cls-34" points="516.5 303.6 518.91 292.87 522.18 290.26 518.91 301.85 516.5 303.6"/><polygon class="cls-34" points="522.18 288.97 522.18 283.6 523.43 280.6 522.81 288.02 522.18 288.97"/><polygon class="cls-34" points="524.2 290.26 525.55 288.97 526.3 290.26 524.2 290.26"/><polygon class="cls-34" points="528.01 327.85 531.35 322.1 532.96 320.24 531.35 326.78 528.01 327.85"/><polygon class="cls-34" points="502.73 178.52 502.73 186.27 504.62 184.1 503.68 176.85 502.73 178.52"/><polygon class="cls-34" points="531.35 201.34 532.96 207.22 535 208.95 532.24 200.1 531.35 201.34"/><polygon class="cls-34" points="532.24 208.01 530.43 210.76 532.24 211.76 534.61 211.76 534.55 209.89 532.24 208.01"/><polygon class="cls-34" points="563.28 278.35 565.68 272.1 567.93 272.1 565.6 277.72 563.28 278.35"/><polygon class="cls-34" points="588.51 258.6 590.01 252.43 593.39 248.19 588.51 258.6"/><polygon class="cls-34" points="552.17 354.31 553.53 347.35 554.76 355.85 553.47 355.85 552.17 354.31"/><polygon class="cls-34" points="554.76 345.27 556.68 340.72 556.68 345.27 555.72 347.52 554.76 345.27"/><polygon class="cls-35" points="800.68 0.1 766.49 0.1 750.61 5.1 742.07 10.43 709.5 11.1 703.01 13.63 702.99 20.43 657.4 66.1 654.14 66.1 654.14 82.43 643.97 82.43 640.3 85.43 631.75 98.77 615.88 108.77 600 117.77 603.26 161.1 602.85 227.43 600 229.76 596.75 260.43 593.49 265.1 581.18 347.35 581.18 400.1 800.68 400.1 800.68 0.1"/><polygon class="cls-36" points="654.14 82.43 654.14 99.1 611.1 225.6 611.1 231.85 600.11 277.6 600.11 298.6 600.11 305.1 586.06 353.85 581.18 400.1 581.18 347.35 593.49 265.1 596.75 260.43 600 229.76 602.85 227.43 603.26 161.1 600 117.77 631.75 98.77 640.3 85.43 643.97 82.43 654.14 82.43"/><polygon class="cls-37" points="593.39 367.85 623.61 319.6 632.77 309.6 641.93 290.1 646.82 283.6 654.14 244.6 667.58 235.6 683.45 184.1 706.04 137.1 713.98 72.1 702.99 20.43 657.4 66.1 654.14 66.1 654.14 99.1 611.1 225.6 611.1 231.85 600.11 277.6 600.11 305.1 586.06 353.85 593.7 355.35 593.39 367.85"/><polygon class="cls-38" points="608.13 384.99 624.43 351.76 650.02 329.43 654.14 315.76 647.22 301.76 663.1 257.22 678.16 249.43 684.26 241.26 697.7 184.76 706.65 161.1 704.71 139.87 706.04 137.1 709.5 163.43 709.5 169.76 687.11 237.43 666.76 326.78 650.02 390.55 608.13 384.99"/><polygon class="cls-39" points="699.83 393.99 709.5 344.32 734.13 301.76 738.4 284.6 734.13 230.1 738.4 169.76 713.98 149.1 706.5 133.32 707.26 127.1 709.5 136.1 716.83 148.76 745.42 169.76 749.39 175.85 740.54 297.1 725.43 330.85 722.83 342.35 718.73 394.54 699.83 393.99"/><polygon class="cls-40" points="709.5 11.1 721.3 30.1 730.46 57.1 741.45 118.77 749.39 161.1 745.12 108.1 740.84 25.6 742.07 10.43 709.5 11.1"/><polygon class="cls-41" points="800.68 0.1 766.49 0.1 791.32 137.1 783.58 223.26 778.29 335.76 792.08 396.67 800.68 396.92 800.68 0.1"/><polygon class="cls-42" points="702.99 20.43 698.24 25.19 702.99 68.88 693.63 153.76 678.97 188.12 667.58 223.26 659.5 220.1 645.19 226.94 632.98 230.1 617.66 230.1 609.76 237.43 617.66 232.1 624.22 233.26 647.02 239.76 650.02 241.26 641.01 285.6 638.39 297.64 641.93 290.1 646.82 283.6 654.14 244.6 667.58 235.6 683.45 184.1 706.04 137.1 713.98 72.1 702.99 20.43"/><polygon class="cls-43" points="636.53 150.84 641.01 152.35 661.87 139.6 671.54 128.85 676.73 116.35 681.62 110.1 695.66 92.6 701.46 82.72 696.88 93.93 688.74 106.1 671.64 132.93 654.14 149.93 638.27 159.03 635.63 153.51 636.53 150.84"/><polygon class="cls-44" points="643.97 82.43 643.97 101.43 643.97 109.26 636.56 130.88 635.63 127.1 634.2 110.6 631.75 98.76 623.03 105.04 627.15 137.1 626.18 167.9 629.52 149.43 636.56 130.88 635.63 133.6 629.52 149.43 621.04 196.37 654.14 99.1 654.14 82.43 643.97 82.43"/><polygon class="cls-45" points="612.25 222.2 607.94 228.6 599.8 270.93 596.95 281.26 596.95 296.43 591.66 309.43 589.83 309.43 589.13 294.24 587.68 303.92 588.81 307.1 589.83 311.26 593.9 315.1 591.46 335.13 582.71 351.76 586.06 353.85 600.11 305.1 600.11 277.6 611.1 231.85 611.1 225.6 612.25 222.2"/><polygon class="cls-46" points="699.83 393.99 709.5 344.32 680.6 312.22 671.38 306.51 666.76 326.78 650.02 390.55 608.13 384.99 624.43 351.76 650.02 329.43 654.14 315.76 647.22 301.76 663.1 257.22 672.46 271.46 676.53 271.46 678.16 249.43 684.26 241.26 697.7 184.76 709.5 169.76 685.44 244.76 673.68 301.43 680.19 308.43 716.43 332.35 734.13 301.76 738.4 284.6 734.45 234.23 745.43 230.1 740.54 297.1 725.43 330.85 718.73 394.54 699.83 393.99"/><polygon class="cls-47" points="608.13 344.32 617.66 351.76 624.43 351.76 650.02 329.43 654.14 315.76 632.77 309.6 623.61 319.6 608.13 344.32"/><polygon class="cls-47" points="663.1 257.22 654.14 244.6 667.58 235.6 682.23 230.1 684.26 231.76 684.26 241.26 678.16 249.43 663.1 257.22"/><polygon class="cls-24" points="638.84 237.43 617.66 232.1 609.76 237.43 600.11 277.6 600.11 305.1 586.06 353.85 593.7 352.04 601.63 346.56 631.14 305.35 638.39 297.64 649.54 243.59 650.02 241.26 638.84 237.43"/><polygon class="cls-48" points="673.68 301.43 709.5 169.76 713.98 159.03 717.64 154.43 738.4 169.76 734.13 230.1 738.4 282.85 734.13 301.76 716.43 332.35 680.19 308.43 673.68 301.43"/><polygon class="cls-48" points="725.43 330.85 745.43 338.74 778.45 332.35 780.54 288.02 780.54 253.19 744.89 237.43 740.54 297.1 725.43 330.85"/><polygon class="cls-48" points="707.26 127.1 713.98 72.1 702.99 20.43 703.01 13.63 709.5 11.1 721.3 30.1 730.46 57.1 745.43 161.1 742.88 164.93 716.83 148.76 709.5 132.43 707.26 127.1"/><polygon class="cls-49" points="742.07 10.43 742.07 43.77 749.39 188.42 783.58 223.26 791.32 137.1 766.49 0.1 742.07 10.43"/><polygon class="cls-50" points="593.7 355.35 593.39 367.85 608.13 344.32 623.61 319.6 632.77 309.6 641.93 290.1 646.82 283.6 654.14 244.6 667.58 235.6 683.45 184.1 678.57 190.93 667.58 223.26 659.5 220.1 645.19 226.94 632.98 230.1 617.66 230.1 631.14 233.26 641.17 238.1 650.02 241.26 638.39 297.64 631.14 305.35 601.63 346.56 593.7 352.04 593.7 355.35"/><polygon class="cls-51" points="641.01 152.35 646.29 154.43 654.14 149.93 671.64 132.93 677.17 115.79 671.54 128.85 661.87 139.6 641.01 152.35"/><polygon class="cls-52" points="717.64 154.43 713.98 159.03 709.5 169.76 683.91 263.82 701.46 275.97 709.5 268.57 724.61 226.94 725.43 161.1 717.64 154.43"/><polygon class="cls-52" points="737.08 188.42 732.29 192.05 729.45 222.2 729.45 232.76 735 241.26 734.13 230.1 737.08 188.42"/><polygon class="cls-47" points="650.02 390.55 671.38 306.51 680.6 312.22 709.5 344.32 699.83 393.99 669.2 393.1 650.02 390.55"/><polygon class="cls-24" points="611.1 225.6 617.66 230.1 632.98 230.1 661.87 192.05 671.64 132.93 654.14 149.93 638.27 159.03 635.63 153.51 611.1 225.6"/><polygon class="cls-24" points="676.78 124.87 681.48 182.23 693.63 153.76 701.46 82.72 696.88 93.93 676.78 124.87"/><polygon class="cls-24" points="636.53 150.84 654.14 99.1 661.87 85.77 679.79 78.43 684.26 85.77 677.17 115.79 671.54 128.85 661.87 139.6 641.01 152.35 636.53 150.84"/><polygon class="cls-24" points="683.45 39.93 683.45 76.35 686.81 85.77 694.75 85.77 702.99 68.88 698.24 25.19 683.45 39.93"/><polygon class="cls-47" points="742.07 10.43 745.12 108.1 749.39 188.42 783.58 223.26 791.32 137.1 766.49 0.1 750.61 5.1 742.07 10.43"/><polygon class="cls-53" points="800.68 282.15 780.54 253.19 744.89 237.43 783.58 252.85 800.68 274.41 800.68 282.15"/><polygon class="cls-54" points="780.21 295.02 777.48 298.89 742.07 296.95 740.83 293.11 740.54 297.1 738.89 300.79 741.56 298.35 778.19 300.79 779.89 301.85 780.21 295.02"/><polygon class="cls-55" points="742.66 55.48 771.22 33.85 772.06 30.86 773.28 37.61 771.83 35.72 744.51 55.48 742.52 59.6 742.66 55.48"/><polygon class="cls-56" points="782.01 85.77 780.99 88.85 745.43 94.97 744.35 93.1 744.66 99.85 745.43 96.72 782.01 91.1 783.29 92.81 782.01 85.77"/><polygon class="cls-24" points="667.58 223.26 659.5 220.1 661.87 206.85 671.64 189.1 679.76 186.27 667.58 223.26"/><polygon class="cls-24" points="617.66 232.1 609.76 237.43 608.13 259.79 612.89 290.26 622.39 306.51 628.93 308.43 631.14 305.35 638.39 297.64 650.02 241.26 617.66 232.1"/><polygon class="cls-24" points="600.11 305.1 602.24 301.85 612.25 322.1 609.76 335.17 601.63 346.56 593.7 352.04 586.06 353.85 600.11 305.1"/><polygon class="cls-57" points="792.08 396.67 778.45 332.35 779.89 301.85 777.48 298.89 780.21 295.02 780.54 253.19 782.22 252.3 783.58 223.26 783.58 252.85 785.84 260.82 783.58 257.57 783.58 306.51 793.35 357.1 800.68 376.93 800.68 396.92 792.08 396.67"/><polygon class="cls-58" points="771.83 35.72 773.28 37.61 782.01 85.77 780.99 88.85 783.29 92.81 791.32 139.4 791.32 115.79 781.57 65.85 778.09 10.43 779 0.1 766.49 0.1 772.06 30.86 771.83 35.72"/><polygon class="cls-59" points="721.3 30.1 741.18 21.4 743.69 75.1 730.46 57.1 721.3 30.1"/><polygon class="cls-47" points="713.98 72.1 731.78 66.27 745.43 161.1 742.88 164.93 716.83 148.76 707.26 127.1 713.98 72.1"/><polygon class="cls-60" points="800.68 234.23 783.58 232.1 745.66 226.94 734.69 222.2 694.45 225.1 693.45 228.76 687.67 226.94 670.24 226.94 667.58 235.6 682.23 230.1 684.26 231.76 690.93 238.03 692.23 233.26 734.13 226.94 744.89 234.23 782.89 238.1 800.68 244.76 800.68 234.23"/><polygon class="cls-60" points="800.68 364.85 795.71 363.47 784.56 363.47 721.06 364.85 706.04 360.76 658.82 353.85 632.96 344.32 611.63 338.74 609.76 341.72 629.49 347.35 656.55 364.85 704.67 364.85 721.25 370.59 785.55 367.85 798.34 370.59 800.68 376.93 800.68 364.85"/><polygon class="cls-60" points="800.68 52.35 775.96 52.35 743.28 66.27 731.38 62.6 712.32 64.32 712.74 66.27 702.99 68.88 679.76 75.1 661.87 85.77 655.14 97.38 655.14 92.81 661.87 82.43 679.76 72.71 701.98 59.6 711.32 59.6 710.44 55.48 727.91 48.25 742.52 52.8 774.19 42.6 800.68 42.6 800.68 52.35"/><polygon class="cls-61" points="707.26 127.1 713.98 72.1 702.99 20.43 703.01 13.63 709.5 11.1 720.25 28.41 730.46 57.1 732.5 72.71 727.91 72.71 727.91 69.99 724.21 69.99 721.3 118.41 719.43 120.88 721.3 82.72 717.74 85.77 716.83 148.76 707.26 127.1"/><polygon class="cls-62" points="749.39 188.42 745.43 96.72 759.6 94.55 766.49 177.6 770.15 178.1 766.49 140.1 770.15 139.4 773.28 193.65 775.95 194.14 780.21 113.69 785.92 107.34 791.32 137.1 783.58 223.26 749.39 188.42"/><polygon class="cls-63" points="636.53 150.84 641.01 152.35 661.87 139.6 669.2 113.43 664.97 113.43 655.14 135.11 650.02 137.1 664.97 90.1 661.87 85.77 655.14 97.38 636.53 150.84"/><polygon class="cls-64" points="659.5 220.1 661.87 206.85 671.64 189.1 670.58 139.4 667.58 142.6 661.87 192.05 659.09 196.37 663.39 146.76 661.87 148.76 654.14 202.22 641.37 219.04 618.04 220.1 611.89 223.26 611.1 225.6 617.66 230.1 632.98 230.1 644.26 227.18 659.5 220.1"/><polygon class="cls-62" points="738.89 300.79 725.43 330.85 745.43 338.74 763.88 335.17 768.37 300.13 766.69 300.13 762.37 332.35 759.55 333.35 764.06 299.85 748.48 298.81 737.08 329.22 734.13 329.22 742.98 298.81 741.56 298.35 738.89 300.79"/><polygon class="cls-62" points="724.21 298.89 726.35 288.02 726.35 297.48 724.21 298.89"/><polygon class="cls-62" points="717.74 310.09 720.7 306.51 717.74 318.54 709.5 319.89 717.74 310.09"/><polygon class="cls-62" points="697.24 351.02 695.85 347.99 697.24 344.95 700.4 349.37 697.24 351.02"/><polygon class="cls-62" points="673.68 301.43 683.91 263.82 677.17 305.18 673.68 301.43"/><polygon class="cls-61" points="768.37 275.6 766.49 263.82 769.69 258.6 768.37 275.6"/><polygon class="cls-62" points="769.69 274.97 771.37 271.6 772.79 273.29 771.24 274.97 769.69 274.97"/><polygon class="cls-61" points="709.5 198.51 713.98 186.27 717.74 193.65 713.62 200.1 709.5 198.51"/><polygon class="cls-62" points="629.08 326.78 635.63 322.17 644.37 322.1 635.63 326.78 629.08 326.78"/><polygon class="cls-62" points="635.63 336.43 636.72 333.6 639.9 333.6 635.63 336.43"/><polygon class="cls-24" points="600 117.77 603.26 161.1 603.26 204.9 617.66 190.49 627.15 137.1 623.03 105.04 600 117.77"/><polygon class="cls-25" points="600 229.76 607.94 228.6 611.1 225.6 602.85 227.43 600 229.76"/><polygon class="cls-25" points="593.49 265.1 597.48 268.94 596.75 260.43 593.49 265.1"/><polygon class="cls-25" points="617.66 232.1 609.76 237.43 631.14 238.1 650.02 241.26 617.66 232.1"/><polygon class="cls-62" points="664.35 347.52 669.2 332.35 669.63 342 664.35 347.52"/><polygon class="cls-62" points="689.12 350.25 689.12 345.27 696.35 350.71 689.12 350.25"/><polygon class="cls-62" points="737.08 356.28 737.08 350.71 742.07 347.99 737.08 356.28"/><polygon class="cls-62" points="783.58 384.72 777.48 352.13 777.48 370.79 783.58 384.72"/><polygon class="cls-61" points="757.9 79.93 757.9 67.77 760.93 69.99 760.93 79.93 757.9 79.93"/><polygon class="cls-61" points="763.82 82.43 766.49 82.43 766.49 88.02 763.82 82.43"/><polygon class="cls-65" points="633.68 200.1 635.63 192.1 636.53 200.1 633.68 200.1"/><polygon class="cls-66" points="645.68 193.18 641.01 199.45 638.42 209.51 645.68 193.18"/><polygon class="cls-67" points="669.63 111.68 673.68 102.89 671.64 115.79 669.63 111.68"/><polygon class="cls-66" points="725.34 123.55 725.34 135.15 723.08 127.29 725.34 123.55"/><polygon class="cls-62" points="756.83 33.96 756.83 20.43 759.55 14.77 760.93 36.1 756.83 33.96"/><polygon class="cls-62" points="762.43 37.22 762.43 32.16 763.74 30.86 765.49 37.22 763.18 38.6 762.43 37.22"/><polygon class="cls-66" points="713.98 184.75 715.35 178.52 717.18 182.23 713.98 184.75"/><polygon class="cls-66" points="706.04 258.6 707.26 254.1 707.26 259.79 704.67 260.82 706.04 258.6"/><polygon class="cls-66" points="713.98 310.09 717.8 305.18 717.8 300.22 713.98 310.09"/><polygon class="cls-65" points="619.35 272.1 622.51 261.82 622.51 269.71 619.35 272.1"/><polygon class="cls-65" points="623.68 272.1 622.51 279.31 624.85 273.76 623.68 272.1"/><polygon class="cls-65" points="669.2 104.1 670.8 95.47 669.2 98.6 669.2 104.1"/><polygon class="cls-34" points="609.76 129.35 609.76 137.1 612.44 142.21 609.76 129.35"/><polygon class="cls-34" points="609.76 142.21 611.1 143.97 610.43 147.1 609.76 142.21"/><polygon class="cls-34" points="601.93 238.1 601.93 249.1 603.3 244.76 601.93 238.1"/><polygon class="cls-34" points="603.3 236.35 605.55 231.35 604.43 235.68 603.3 236.35"/><polygon class="cls-34" points="616.55 162.35 615.05 173.1 616.55 177.72 618.43 176.85 618.43 161.1 616.55 162.35"/><polygon class="cls-34" points="618.43 159.03 618.43 154.43 620.18 152.35 619.3 159.03 618.43 159.03"/><polygon class="cls-68" points="779 0.1 766.49 0.1 750.61 5.1 742.07 10.43 709.5 11.1 703.01 13.63 702.99 20.43 698.24 25.19 683.45 39.93 683.45 40 657.4 66.1 654.14 66.1 654.14 82.43 643.97 82.43 640.3 85.43 631.75 98.76 600 117.76 600.89 129.49 587.59 147.96 574.95 142.44 568.28 145.13 541.15 169.76 532.24 166.6 528.33 167.32 528.33 167.32 524.2 168.08 524.2 168.08 519.93 168.87 519.93 168.87 519.93 168.87 519.93 168.87 499.01 172.72 498.61 178.75 492.01 182.45 492.01 182.45 477.68 190.49 475.58 221.84 455.61 238.22 447.25 238.22 441.61 249.29 428.13 301.8 428.13 301.8 416.39 347.52 427.97 347.52 430.25 347.52 468.72 348.54 477.02 353.85 477.14 353.07 477.14 353.07 477.02 353.85 481.18 355.35 482.43 359.35 534.77 364.38 534.77 364.38 534.77 364.38 581.18 368.85 581.18 400.1 800.68 400.1 800.68 396.92 800.68 376.93 800.68 364.85 800.68 282.15 800.68 274.41 800.68 244.76 800.68 234.23 800.68 52.35 800.68 42.6 800.68 0.1 779 0.1"/><path class="cls-69" d="M135.8,0l16.68,11.33v3.34l21,20.58,4.92,7.25s31.38,8.25,44.87,14.5c0,0,11.93,16.75,14.52,25.5l1.81,44.5,32.94,17.5-.86,16.5,16.94,14.75h3.89l2.07,7L300.81,200l7.27-2,3.37,2,8.29,16.75,10.12,30,2.33,19.5L329.86,271l2.33,76.25V400H0V0Z" transform="translate(0.68 0.1)"/><polygon class="cls-70" points="139.68 199.6 147.28 212.66 153.51 220.1 162.5 225.1 172.18 233.76 181.17 237.43 191.89 237.43 191.89 228.76 181.17 189.1 175.64 132.43 165.78 92.43 153.51 43.77 149.94 9.24 136.48 0.1 93.24 0.1 129.3 147.43 139.68 199.6"/><polygon class="cls-48" points="195 233.1 199.49 248.18 219.55 290.43 245.48 313.1 271.76 329.43 275.91 329.43 244.79 262.1 204.68 158.76 187.39 146.76 182.55 146.76 185.66 192.06 187.13 202.6 195 233.1"/><polygon class="cls-71" points="175.46 268.1 191.89 275.6 195.86 275.6 204.33 275.6 208.66 273.76 188.6 244.76 187.39 248.18 173.22 246.26 159.38 237.43 148.84 223.26 175.46 268.1"/><polygon class="cls-48" points="0.68 82.43 22.46 122.43 29.72 141.1 54.27 164.76 67.41 178.76 72.94 182.43 98.88 188.76 104.75 188.76 98.19 177.76 46.67 88.77 13.82 0 0.68 0.1 0.68 82.43"/><polygon class="cls-72" points="13.82 0 46.67 88.77 104.75 188.76 131.9 281.85 155.67 326.78 169.24 377.35 0.68 384.1 0.68 0.1 13.82 0"/><polygon class="cls-48" points="142.56 378.42 129.65 360.43 69.14 308.43 62.92 308.43 57.73 310.76 57.73 322.1 71.22 351.76 74.76 354.43 83.32 356.1 97.84 380.21 142.56 378.42"/><path class="cls-73" d="M223.28,57l-3,35v21l3,36,5.27,14.33,6.92,6.34L239.61,127,237.8,82.5S230.8,64,223.28,57Z" transform="translate(0.68 0.1)"/><polygon class="cls-47" points="26.09 0.1 45.8 35.6 52.72 40.6 86.77 82.43 100.15 85.6 104.75 85.6 82.63 0 26.09 0.1"/><polygon class="cls-74" points="0.68 82.43 22.46 122.43 29.72 141.1 26.09 175.76 26.09 315.1 45.8 382.29 0.68 384.1 0.68 82.43"/><polygon class="cls-75" points="26.09 0.1 45.8 35.6 52.72 40.6 86.77 82.43 78.48 103.1 85.74 145.39 61.79 82.43 59.46 61.1 29.72 31.43 17.62 0.03 26.09 0.1"/><polygon class="cls-76" points="82.63 0 104.75 85.6 104.75 97.6 112.36 110.43 117.55 128.76 129.3 161.1 135.87 197.43 151.43 237.43 174.94 312.43 185.66 357.1 185.66 376.24 196.38 375.51 185.66 347.35 178.75 298.1 175.46 268.1 148.84 223.26 153.51 220.1 139.68 199.6 131.32 157.57 93.24 0.1 82.63 0"/><polygon class="cls-77" points="50.47 161.1 57.73 188.12 57.73 207.76 57.73 233.26 55.22 311.1 55.22 347.35 57.73 381.81 97.84 380.21 83.32 356.1 74.76 354.43 71.22 351.76 57.73 322.1 57.73 310.76 62.92 308.43 69.14 308.43 129.65 360.43 142.56 378.42 145.91 378.28 131.38 355.76 120.31 341.1 118.24 336.76 120.31 301.76 117.89 297.1 97.49 283.43 78.48 257.43 78.48 249.43 88.85 258.76 93.24 264.43 88.5 238.1 73.64 215.1 72.94 206.76 70.66 180.91 50.47 161.1"/><polygon class="cls-78" points="153.16 14.77 153.51 43.77 171.72 116.54 175.64 132.43 181.17 189.1 191.89 228.76 191.89 237.43 188.6 244.76 208.66 273.76 226.12 318.43 240.29 372.54 252.81 371.69 238.22 351.76 226.81 308.43 219.55 290.43 199.49 248.18 187.13 202.6 182.55 146.76 171.83 103.43 159.73 52.1 153.16 14.77"/><path class="cls-79" d="M178.41,42.5,175,90l3.45,21.5L204,158.67l34.71,89.41L225.78,192l2.77-28.64L223.28,149l-3-36V85.5l3-28.5S187.4,44,178.41,42.5Z" transform="translate(0.68 0.1)"/><polygon class="cls-80" points="240.29 127.1 239.39 173.1 240.29 218.6 241.33 253.19 274.68 326.78 270.12 308.43 254.3 275.6 250.15 258.35 247.55 226.94 260 232.1 270.03 230.1 255.07 226.94 250.67 223.26 248.63 131.53 240.29 127.1"/><polygon class="cls-81" points="78.48 257.43 78.48 249.43 93.24 264.43 97.49 271.46 112.19 281.35 131.9 284.85 131.9 281.85 155.67 326.78 155.67 326.78 120.31 301.76 117.89 297.1 97.49 283.43 78.48 257.43"/><polygon class="cls-82" points="57.73 310.76 55.43 304.6 55.9 290.26 72.6 308.43 101.47 334.26 108.21 335.43 118.24 336.76 120.31 341.1 131.38 355.76 145.91 378.28 142.56 378.42 129.65 360.43 69.14 308.43 62.92 308.43 57.73 310.76"/><polygon class="cls-81" points="191.89 237.43 191.89 228.76 181.17 189.1 160.77 154.43 131.72 139.4 132.02 161.1 139.68 199.6 153.51 220.1 162.5 225.1 172.18 233.76 181.17 237.43 191.89 237.43"/><polygon class="cls-81" points="29.72 141.1 70.66 180.91 82.63 184.8 98.88 188.76 104.75 188.76 46.67 88.77 38.02 88.77 0.68 72.1 0.68 82.43 29.72 141.1"/><polygon class="cls-47" points="93.24 0.1 107.19 57.1 129.3 94.38 148.84 100.6 145.91 72.69 139.5 31.6 153.16 85.77 161.81 118.77 175.64 132.43 153.51 43.77 153.16 11.43 136.48 0.1 93.24 0.1"/><polygon class="cls-83" points="85.74 145.39 123.42 161.1 129.3 161.1 117.55 128.76 112.36 110.43 104.75 97.6 78.48 103.1 85.74 145.39"/><polygon class="cls-84" points="240.29 372.54 226.12 318.43 226.81 308.43 238.22 351.76 252.81 371.69 240.29 372.54"/><polygon class="cls-85" points="185.66 376.24 185.66 357.1 171.03 299.93 175.46 268.1 185.66 347.35 196.38 375.51 185.66 376.24"/><polygon class="cls-86" points="153.43 36.43 151.95 39.93 139.5 38.18 101.12 28.27 99.22 25.1 100.43 30.93 144.52 39.93 153.51 43.77 153.43 36.43"/><polygon class="cls-86" points="104.75 47.7 155.06 69.77 158.78 69.6 159.12 66.27 160.75 72.71 113.05 52.6 105.96 52.77 104.75 47.7"/><polygon class="cls-87" points="175.64 132.43 161.81 118.77 137.26 116.43 129.3 97.6 129.3 94.38 107.19 57.1 131.32 157.57 131.72 139.4 160.77 154.43 181.17 189.1 175.64 132.43"/><polygon class="cls-86" points="29.72 141.1 82.63 153.85 86.77 157.81 81.8 149.46 81.46 151.97 43.03 143.97 28.24 138.11 29.72 141.1"/><polygon class="cls-88" points="122.44 249.43 107.19 248.18 96.63 249.43 90.32 248.18 89.9 245.87 91.05 247.65 96.5 248.89 106.94 247.65 119.77 247.65 121.41 245.87 122.44 249.43"/><polygon class="cls-89" points="182.55 323.17 223.7 334.34 226.9 334.34 229.23 334.34 230.5 335.17 229.79 332.46 228.71 333.43 222.88 333.76 184.63 321.68 181.5 315 182.55 323.17"/><polygon class="cls-90" points="185.66 347.35 191.89 347.35 227.59 354.31 232.77 353.85 234.58 350.71 236.15 356.72 230.5 355.22 191.28 348.35 186.56 349.71 185.66 347.35"/><polygon class="cls-91" points="139.68 199.6 153.51 220.1 148.84 223.26 171.03 260.63 175.46 268.1 166.78 259.35 154.08 245.87 135.87 197.43 139.68 199.6"/><polygon class="cls-92" points="157.28 222.2 161.81 226.94 159.38 237.43 173.22 246.26 175.46 237.43 178.75 237.43 181.17 237.43 172.18 233.76 162.5 225.1 157.28 222.2"/><polygon class="cls-93" points="137.26 116.43 131.72 139.4 131.32 157.57 121.94 118.77 112.36 110.43 104.75 97.6 104.75 85.6 99.63 65.79 107.19 57.1 129.3 94.38 129.3 97.6 137.26 116.43"/><polygon class="cls-94" points="188.6 244.76 191.89 237.43 191.89 228.76 194.23 228.76 199.49 248.18 211.25 272.96 210.16 277.62 208.66 273.76 188.6 244.76"/><polygon class="cls-95" points="45.8 35.6 50.47 38.97 50.47 34.43 82.63 8.1 84.96 9.03 83.61 3.83 82.63 6.34 48.27 34.43 45.8 35.6"/><polygon class="cls-96" points="29.72 31.43 40.79 34.43 26.09 0.1 45.8 35.6 52.72 40.6 86.77 82.43 78.48 103.1 71.26 107.33 61.79 82.43 59.46 61.1 29.72 31.43"/><polygon class="cls-97" points="82.63 0 91.96 36.1 98.39 21.4 93.24 0.1 82.63 0"/><polygon class="cls-98" points="26.09 175.76 0.68 212.66 0.68 384.1 45.8 382.29 26.61 319.76 26.09 175.76"/><polygon class="cls-99" points="175.64 90.1 221.27 82.43 220.93 113.1 223.96 149.1 207.51 166.06 179.09 111.6 175.64 90.1"/><polygon class="cls-100" points="219.69 197.43 226.46 192.06 239.39 248.18 219.69 197.43"/><polygon class="cls-101" points="169.42 107.33 171.83 103.43 182.55 146.76 186.78 200.1 181.17 189.1 175.64 132.43 169.42 107.33"/><polygon class="cls-60" points="0.68 226.94 26.09 223.26 57.73 233.26 83.33 230.1 117.58 232.76 119.65 239.86 153.16 243.43 160.81 243.43 195.45 254.67 201.71 252.85 244.79 262.1 249.99 256.43 263.4 256.43 264.19 262.1 250.15 258.35 246.59 264.81 244.1 264.81 205.03 259.84 201.31 263.15 162.5 246.26 156.26 252.85 123.44 252.85 119.8 241.76 118.02 236.03 86.77 234.23 84.96 234.23 56.43 237.43 26.09 226.94 0.68 228.76 0.68 226.94"/><polygon class="cls-60" points="0.68 246.26 26.09 244.03 36.98 247.65 57.09 253.19 78.48 249.43 89.9 252.85 124.48 256.43 128.87 271.46 161.81 270.52 176.43 275.6 199.93 283.1 213.72 286.71 216.44 283.89 257.03 288.6 260 287.44 269.28 288.6 270.59 293.11 261.36 290.26 260 293.11 218.44 288.11 216.22 293.11 178.1 279.1 163.02 274.41 130.66 277.62 125.74 263.6 93.24 264.43 86.26 256.43 78.48 252.85 56.43 264.81 40.1 264.81 25.92 261.76 0.68 264.81 0.68 246.26"/><polygon class="cls-60" points="0.68 130.43 18.67 118.77 66.61 123.1 75.61 118.77 80.25 113.43 113.21 113.43 115.94 123.1 137.26 116.43 161.81 118.77 175.64 132.43 177.8 126.35 190.11 131.47 220.59 110.43 239.39 129.35 239.39 138.11 248.81 139.4 272.75 153.78 271.93 169.76 249.08 151.76 239.81 151.76 238.91 142.43 236.92 132.43 221.36 120.6 191.89 135.18 179 132.43 179 132.43 176.19 138.11 177.15 147.96 145.91 129.35 133.88 130.43 127.75 142.85 118.88 132.43 117.07 127.08 82.63 123.1 79.64 129.35 70.87 130.43 68.93 127.1 22.79 127.1 0.68 145.39 0.68 130.43"/><polygon class="cls-102" points="230.5 335.17 232.98 331.86 245.83 333.51 274.68 336.43 245.65 331.86 232.03 328.26 229.79 332.46 230.5 335.17"/><polygon class="cls-103" points="230.5 335.17 234.58 350.71 232.77 353.85 227.59 354.31 191.89 347.35 185.66 347.35 182.55 323.17 223.7 334.34 229.23 334.34 230.5 335.17"/><polygon class="cls-103" points="97.84 380.21 83.32 356.1 97.84 336.43 96.97 332.35 129.65 360.43 142.56 378.42 97.84 380.21"/><polygon class="cls-103" points="29.72 141.1 70.66 180.91 98.88 188.76 104.75 188.76 86.77 157.81 81.46 151.97 42.69 145.39 29.72 141.1"/><polygon class="cls-104" points="78.48 249.43 73.81 230.1 73.64 215.1 88.5 238.1 93.24 264.43 78.48 249.43"/><polygon class="cls-60" points="0.68 277.62 26.09 277.62 56.43 282.43 55.22 311.1 26.57 308.43 0.68 308.43 0.68 277.62"/><polygon class="cls-105" points="74.76 354.43 63.95 380.21 57.73 381.81 55.22 323.17 57.73 322.1 71.22 351.76 74.76 354.43"/><polygon class="cls-106" points="26.61 319.76 23.24 352.04 17.62 381.81 45.8 382.29 26.61 319.76"/><polygon class="cls-107" points="104.75 47.7 98.19 57.1 105.96 52.77 113.05 52.6 104.75 47.7"/><polygon class="cls-48" points="268.78 327.58 261.24 310.98 260 295.02 275.91 329.43 271.76 329.43 268.78 327.58"/><polygon class="cls-48" points="229.23 298.89 213.13 255.3 199.93 233.26 192.45 222.2 199.49 248.18 219.55 290.43 229.23 298.89"/><polygon class="cls-48" points="160.77 154.43 173.22 185.76 186.78 218.1 190.11 222.2 181.17 189.1 160.77 154.43"/><polygon class="cls-48" points="136.72 184.71 145.91 188.12 157.28 210.76 162.5 225.1 153.51 220.1 139.68 199.6 136.72 184.71"/><polygon class="cls-48" points="173.22 246.26 191.89 275.6 204.33 275.6 208.66 273.76 188.6 244.76 187.39 248.18 173.22 246.26"/><polygon class="cls-48" points="28.24 84.4 45.8 115.77 56.43 127.1 69.83 148.76 81.46 151.97 81.8 149.46 46.67 88.77 38.02 88.77 28.24 84.4"/><polygon class="cls-48" points="50.47 38.97 50.47 34.43 61.87 25.1 95.09 84.4 86.77 82.43 50.47 38.97"/><polygon class="cls-108" points="223.96 57.1 229.23 91.1 234.07 100.43 234.07 145.39 234.07 167.87 236.14 169.76 240.29 127.1 238.48 82.6 223.96 57.1"/><polygon class="cls-48" points="216.07 188.12 207.51 188.12 202.99 208.1 211.25 237.43 229.79 249.43 241.33 253.19 216.07 188.12"/><polygon class="cls-48" points="96.97 332.35 97.84 336.43 89.9 347.18 109.59 360.76 129.65 360.43 96.97 332.35"/><polygon class="cls-48" points="57.73 310.76 74.76 319.76 88.51 325.08 69.14 308.43 62.92 308.43 57.73 310.76"/><polygon class="cls-48" points="26.09 175.76 28.24 155.24 31.71 164.93 45.8 192.05 40.1 264.81 26.09 277.62 26.09 175.76"/><polygon class="cls-48" points="112.43 215.1 112.43 226.94 117.07 244.03 121.41 245.87 112.43 215.1"/><polygon class="cls-48" points="131.72 139.4 136.72 161.1 142.56 175.76 169.42 188.76 169.42 183.1 160.77 154.43 131.72 139.4"/><polygon class="cls-48" points="0.68 72.1 12.09 82.43 29.72 97.6 35.95 120.33 28.24 130.43 25.43 132.43 0.68 82.43 0.68 72.1"/><polygon class="cls-48" points="48.4 0 59.55 14.77 68.3 18.05 82.63 6.34 83.61 3.83 82.63 0 48.4 0"/><polygon class="cls-108" points="131.72 0.1 116.92 9.02 118.24 32.69 151.95 39.93 153.43 36.43 153.16 11.43 131.72 0.1"/><polygon class="cls-48" points="260 232.1 247.55 226.94 250.15 258.35 254.3 275.6 270.12 308.43 275.91 311.43 266.62 279.43 260 232.1"/><polygon class="cls-109" points="240.29 127.1 248.63 131.53 248.63 184.71 250.67 223.26 255.07 226.94 247.55 226.94 250.15 258.35 248.06 269.19 241.33 253.19 240.29 127.1"/><polygon class="cls-110" points="179 132.43 191.89 135.18 204.68 158.76 192.45 143.1 180.41 138.11 179 132.43"/><polygon class="cls-111" points="239.39 248.18 231 211.76 235.19 173.79 236.14 169.76 232.13 210.1 235.19 216.43 237.91 161.1 239.81 151.76 239.39 248.18"/><polygon class="cls-111" points="129.3 161.1 135.87 197.43 153.16 243.43 150.57 243.16 132.44 197.43 125.67 195.6 139.42 241.97 129.3 241.26 109.78 190.49 109.36 155.24 123.42 161.1 129.3 161.1"/><polygon class="cls-110" points="155.91 17.46 163.07 66.27 166.78 66.27 162.5 34.43 169.42 38.5 173.22 85.6 175.64 90.1 179.09 42.6 174.17 35.35 155.91 17.46"/><polygon class="cls-111" points="13.82 0 36.34 60.85 32.14 58.6 28.24 42.8 26.09 40.93 19.7 30.43 33.01 72.1 32.66 76.6 30.41 79.27 31.97 85.6 27.01 83.85 7.94 14.77 5.87 15.93 5.87 25.1 15.2 53.04 20.23 70.69 19.52 72.1 8.8 34.43 0.68 28.27 0.68 0.1 13.82 0"/><polygon class="cls-112" points="59.46 61.1 65.38 56.15 66.89 58.63 61.49 64.97 62.14 66.27 68.17 60.17 76.79 70.22 65.89 93.19 65.38 91.86 75.23 71.1 73.68 68.6 61.79 82.43 59.46 61.1"/><polygon class="cls-113" points="248.63 131.53 250.09 197.43 252.81 202.6 252.81 164.08 255.07 161.1 255.07 169.76 260 182.28 261.73 184.1 267.4 143.85 269.99 145.39 269.99 218.93 270.03 230.1 273.23 144.6 248.63 131.53"/><polygon class="cls-113" points="260 232.1 247.55 226.94 250.15 258.35 254.3 275.6 260 287.44 261.73 288.11 254.64 271.46 252.24 258.43 257.47 260.55 259.45 268.1 254.64 271.46 270.59 293.11 260 232.1"/><polygon class="cls-65" points="250.67 223.26 255.07 226.94 259.07 227.78 250.3 216.25 250.67 223.26"/><polygon class="cls-65" points="260 222.2 257.03 216.25 260 204.56 260 222.2"/><polygon class="cls-65" points="199.93 169.76 202.99 179.35 207.51 180.81 199.93 169.76"/><polygon class="cls-65" points="145.91 253.4 150.57 270.26 149.61 260.02 145.91 253.4"/><polygon class="cls-65" points="78.48 161.1 86.77 172.1 89.9 172.1 78.48 161.1"/><polygon class="cls-65" points="137.26 137.1 145.91 129.35 144.18 133.22 144.18 136.22 137.26 137.1"/><polygon class="cls-65" points="169.42 153.1 170.21 151.76 173.08 151.76 173.08 159.47 171.25 157.57 169.42 153.1"/><polygon class="cls-65" points="173.94 161.92 175.44 166.6 176.66 164.93 173.94 161.92"/><polygon class="cls-65" points="199.93 102.27 199.8 107.34 202.99 113.07 199.93 102.27"/><polygon class="cls-65" points="181.17 83.38 186.05 79.1 190.11 78.43 190.03 81.24 181.17 83.38"/><polygon class="cls-65" points="86.77 311.43 95.09 292.97 93.24 306.51 86.77 311.43"/><polygon class="cls-65" points="84.19 306.51 81.8 302.2 78.48 303.6 78.48 306.51 84.19 306.51"/><polygon class="cls-65" points="112.43 327.85 112.94 325.08 116.92 332.35 112.43 332.35 112.43 327.85"/><polygon class="cls-65" points="67.24 362.13 64.99 356.28 66.11 350.71 67.24 362.13"/><polygon class="cls-65" points="59.46 166.6 70.18 177.71 76.79 183.37 82.63 184.8 59.46 166.6"/><polygon class="cls-65" points="73.64 215.1 71.64 192.1 74.76 208.95 73.64 215.1"/><polygon class="cls-65" points="106.17 220.12 104.75 204.9 109.36 220.12 109.36 227.14 106.17 220.12"/><polygon class="cls-65" points="102.18 270.26 112.43 275.6 107.31 275.6 102.18 270.26"/><polygon class="cls-65" points="23.24 149.03 21.68 172.1 18.51 161.92 23.24 149.03"/><polygon class="cls-65" points="20.87 146.76 23.24 137.1 22.06 133.22 20.87 146.76"/><polygon class="cls-65" points="25.18 353.47 26.45 362.13 31.71 360.76 25.18 353.47"/><polygon class="cls-65" points="26.09 363.43 24.35 369.42 28.56 373.76 28.56 368.6 26.09 363.43"/><polygon class="cls-65" points="67.24 188.12 65.51 198.14 68.85 202.26 67.24 188.12"/><polygon class="cls-114" points="272.37 161.1 270.03 206.43 270.03 230.1 260 232.1 266.62 279.43 275.91 311.43 275.91 329.43 290.08 351.76 332.87 347.35 332.87 340.1 330.54 271.1 332.87 266.35 330.54 246.85 320.42 216.85 312.13 200.1 308.75 198.1 301.49 200.1 293.19 175.85 289.31 175.85 272.37 161.1"/><polygon class="cls-115" points="289.31 175.85 286.19 210.1 286.19 221.85 284.38 233.26 289.31 220.85 292.16 193.65 293.19 175.85 289.31 175.85"/><polygon class="cls-116" points="260.75 237.43 271.15 241.26 288.79 253.1 300.46 275.6 300.46 275.6 304.09 260.1 304.09 260.1 291.38 245.85 270.03 230.1 260 232.1 260.75 237.43"/><polygon class="cls-117" points="300.26 350.71 296.44 303.6 300.46 275.6 300.46 275.6 304.09 260.1 304.09 260.1 306.68 221.1 306.68 215.35 301.49 200.1 308.75 198.1 312.13 200.1 312.13 215.6 314.2 238.1 323.02 248.18 330.19 258.43 332.87 266.35 330.54 271.1 329.15 260.93 326.39 256.76 313.6 246.43 308.24 265.1 309.45 280.76 308.41 315.43 309.1 349.8 300.26 350.71"/><polygon class="cls-118" points="288.79 253.1 284.38 282.15 288.79 297.64 296.44 303.6 300.46 275.6 290.52 256.43 288.79 253.1"/><polygon class="cls-118" points="300.26 350.71 290.08 351.76 283.34 340.48 277.98 290.26 283.34 288.02 288.79 301.85 296.44 310.09 300.26 350.71"/><polygon class="cls-118" points="313.6 246.43 308.24 265.1 309.1 349.8 332.87 347.35 329.15 260.93 326.39 256.76 313.6 246.43"/><polygon class="cls-118" points="312.13 200.1 312.13 212.1 314.2 238.1 323.02 248.18 324.44 228.76 319.61 215.2 312.13 200.1"/><polygon class="cls-15" points="309.1 349.8 308.76 303.6 304.09 309.6 296.44 310.09 300.26 350.71 309.1 349.8"/><polygon class="cls-119" points="268.5 285.93 275.91 285.93 283.34 288.02 288.79 301.85 296.44 310.09 296.44 303.6 288.79 297.64 285.32 285.45 277.98 285.04 274.09 283.6 267.4 282.15 268.5 285.93"/><polygon class="cls-120" points="271.15 241.26 279.97 237.43 270.03 230.1 260 232.1 260.75 237.43 271.15 241.26"/><polygon class="cls-121" points="286.19 210.1 290.71 207.46 292.25 192.05 287.98 190.49 286.19 210.1"/><polygon class="cls-33" points="264.66 265.44 286.68 269.19 298.93 286.23 309.1 284.63 331 295.02 331.18 298.35 309.25 287.36 298.35 290.26 286.19 273.26 265.68 272.74 264.66 265.44"/><polygon class="cls-33" points="263.1 254.25 288.28 256.43 300.15 277.72 309.05 275.6 330.79 279.39 330.9 281.89 309.1 277.62 299.92 279.31 287.74 260.02 263.51 257.22 263.1 254.25"/><polygon class="cls-122" points="298.12 366.85 275.91 329.43 275.91 311.43 273.12 301.85 270.59 293.11 254.3 275.6 246.86 267.1 211.25 237.43 191.89 228.76 139.03 196.37 131.72 145.39 131.72 145.39 137.26 116.43 104.75 97.6 104.75 85.6 86.77 82.43 35.08 16.28 26.09 0.1 0.68 0.1 0.68 384.1 97.84 380.21 145.91 378.28 294.75 368.85 298.12 366.85"/><polygon class="cls-123" points="312.13 315 310.18 298.35 312.13 305.43 312.13 315"/><polygon class="cls-123" points="312.8 310.69 312.8 318.33 314.65 316.42 312.8 310.69"/><polygon class="cls-123" points="324.44 285.3 326.67 281.89 326.67 284.63 324.44 285.3"/><polygon class="cls-123" points="316.51 252.85 315.58 256.43 315.58 260.55 316.51 252.85"/><polygon class="cls-123" points="318.28 224.14 320.55 231.1 320.55 225.37 318.28 224.14"/><polygon class="cls-123" points="289.22 231.1 292.42 224.14 290.82 230.1 289.22 231.1"/><polygon class="cls-123" points="327.19 336.25 328.35 347 330.76 346.59 327.19 336.25"/><polygon class="cls-123" points="290.82 344.1 292.42 338.74 292.42 342.93 290.82 344.1"/><polygon class="cls-17" points="766.49 0.1 750.61 5.1 742.07 10.43 709.5 11.1 703.01 13.63 702.99 20.43 698.24 25.19 657.4 66.1 654.14 66.1 654.14 82.43 643.97 82.43 640.3 85.43 631.75 98.76 600 117.77 600.99 129.35 587.59 147.96 574.95 142.44 568.28 145.13 541.15 169.76 532.24 166.6 499.01 172.72 499.01 178.52 477.68 190.49 475.14 222.2 455.61 238.22 447.25 238.22 441.61 249.29 422.01 325.65 440.8 248.19 446.71 236.35 455.61 236.79 474.61 220.88 477.02 189.51 498.35 177.26 498.6 172.06 502.73 171.22 527.76 166.6 532.52 165.26 541.01 168.87 567.18 144.46 575.18 141.35 586.93 146.1 588.43 145.34 600 129.35 598.85 117.27 631.6 97.38 639.43 84.86 643.68 81.42 653.6 81.42 653.22 65.89 654.14 65.35 657.14 65.64 673.93 48.89 699.01 22.35 701.46 20.43 701.46 13.1 709.5 10.1 741.43 9.76 750.6 3.93 760.93 0.1 766.49 0.1"/><polygon class="cls-17" points="654.14 82.43 655.14 97.38 654.14 97.38 651.54 82.43 654.14 82.43"/><polygon class="cls-17" points="473.85 223.26 474.17 242.77 477.68 190.49 473.85 223.26"/><polygon class="cls-17" points="136.48 0.1 153.16 11.43 153.43 16.28 173.23 34.43 179.09 42.6 223.96 57.1 238.48 82.6 240.29 127.1 273.23 144.6 272.37 161.1 289.31 175.85 293.19 175.85 301.49 200.1 308.75 198.1 312.13 200.1 325.56 232.1 330.54 246.85 332.87 266.35 330.54 271.1 332.87 347.35 331.18 270.85 334.18 265.44 331.18 244.66 326.92 231.1 313.1 199.45 308.93 196.76 302.6 198.68 293.76 175.29 290.1 175.29 273.23 161.1 273.76 143.85 272.75 142.93 241.1 126.02 239.39 82.18 232.13 67.93 223.96 56.02 181.17 41.47 174.8 34.43 154.43 15.72 154.43 10.04 141.49 0.1 136.48 0.1"/><ellipse class="cls-124" cx="390.6" cy="306.51" rx="85.39" ry="86.12"/><polygon class="cls-125" points="128.71 373.61 126.03 351.85 126.6 346.57 127.22 356.56 126.6 324.18 130.68 318.3 133.85 344.08 133.62 333.64 134.72 335.52 139.84 369.4 140.99 369.26 141.44 334.69 142.81 334.52 142.09 370.95 144.12 336.47 146.34 334.92 143.93 368.9 144.83 368.79 146.94 346.32 149.09 343.57 163.25 351.29 162.56 369.45 163.21 368.99 163.68 348.28 165.7 347.53 165.5 379.57 128.71 373.61"/><polygon class="cls-126" points="144.56 375.93 148.32 329.95 150.39 327.05 145.77 376.37 144.56 375.93"/><polygon class="cls-126" points="146.74 376.53 152.4 343.4 155.56 344.43 150.76 370.9 157.39 341.94 162.03 341.36 156.66 378.14 146.74 376.53"/><polygon class="cls-127" points="164.37 379.38 167.15 340.74 168.5 339.82 165.5 379.57 164.37 379.38"/><polygon class="cls-127" points="128.71 373.61 119.33 337.41 120.12 333.79 129.58 373.75 128.71 373.61"/><polygon class="cls-127" points="137.66 375.06 134.37 330.62 135.06 330.53 138.54 375.2 137.66 375.06"/><polygon class="cls-128" points="466.03 346.82 418.4 339.71 372.8 338.74 372.8 341.47 290.08 351.76 298.12 366.85 294.75 368.85 0.68 384.1 0.68 400.1 470.93 400.1 800.68 400.1 800.68 396.92 650.02 390.55 577.68 367.85 482.43 359.35 481.18 355.35 481.18 355.35 466.03 346.82"/><polygon class="cls-129" points="623.68 400.1 164.18 400.1 206.45 393.62 265.96 384.49 292.3 378.1 314.65 372.68 320.55 369.42 319.1 368.06 298.12 366.85 292.95 357.14 292.2 355.74 352.35 345.27 370.13 342.84 370.17 342.84 385.6 340.72 380.44 338.9 416.88 339.68 419.83 341.21 421.35 342 450.6 347 466.03 352.04 462.18 353.09 466.78 355.33 478.93 361.23 546.68 372.54 540 374.6 482.43 379.85 488.02 381.82 556.68 390.09 602.26 396.9 619.22 399.43 623.68 400.1"/><polygon class="cls-130" points="374.01 400.1 199.93 400.1 206.45 393.62 265.96 384.49 314.65 372.68 320.55 369.42 319.1 368.06 298.12 366.85 292.95 357.14 292.2 355.74 352.35 345.27 370.13 342.84 372.8 342.73 372.8 342.73 374.01 400.1"/><polygon class="cls-131" points="605.55 400.1 421.51 400.1 418.91 341.42 419.83 341.21 421.35 342 450.6 347 466.03 352.04 462.18 353.09 478.93 361.23 546.68 372.54 540 374.6 482.43 379.85 488.02 381.82 556.68 390.09 602.26 396.9 605.55 400.1"/><polygon class="cls-132" points="619.24 400.1 466.03 400.1 466.03 355.76 466.78 355.33 478.93 361.23 546.68 372.54 540 374.6 482.43 379.85 488.02 381.82 556.68 390.09 602.26 396.9 619.22 399.43 619.24 400.1 619.24 400.1"/><polygon class="cls-133" points="334.57 400.1 291.62 400.1 292.3 378.1 314.65 372.68 320.55 369.42 319.1 368.06 298.12 366.85 292.95 357.14 333.39 349.43 334.57 400.1"/><polygon class="cls-134" points="296.38 381.49 296.38 400.1 207.51 400.1 208.66 393.99 296.38 381.49"/><polygon class="cls-135" points="164.18 400.1 207.51 400.1 212.93 396.1 217.18 398.1 274.68 388.32 316.18 375.35 322.12 370.6 319.1 368.05 298.12 366.85 292.95 357.14 351.76 345.68 385.93 340.89 385.6 340.72 351.46 345.35 292.2 355.74 298.12 366.85 298.12 366.85 319.1 368.05 320.19 369.08 314.65 372.68 265.96 384.48 164.18 400.1"/><polygon class="cls-136" points="623.68 400.1 556.68 390.09 488.02 381.81 482.43 379.85 480.18 383.02 487.61 385.08 560.38 393.99 584.87 400.1 623.68 400.1"/><polygon class="cls-135" points="542.67 373.77 478.47 362.39 461.8 353.5 462.18 353.09 465.1 352.29 450.6 347.52 420.6 342.6 416.39 339.66 416.88 339.67 421.35 342 450.6 347 466.03 352.04 462.18 353.09 478.93 361.22 546.68 372.54 542.67 373.77"/><path class="cls-137" d="M309.5,353.68l42.33-8.22s-.67,1.19-3.1.92l-1.71.24s-3.57,1.44-15.9,3.35S309.5,353.68,309.5,353.68Z" transform="translate(0.68 0.1)"/><path class="cls-137" d="M298.94,355.69l6.56-1.19A7.92,7.92,0,0,1,298.94,355.69Z" transform="translate(0.68 0.1)"/><polygon class="cls-138" points="487.61 385.08 480.18 383.02 480.62 382.47 475.3 383.77 487.61 385.68 578.8 400.1 584.87 400.1 560.38 393.99 487.61 385.08"/><polygon class="cls-139" points="322.12 370.6 324.98 370.99 317.18 375.6 293.2 384.07 216.18 400.1 207.51 400.1 212.93 396.1 218.55 397.6 299.62 380.59 317.43 374.35 322.12 370.6"/><polygon class="cls-137" points="420.6 342.6 421.87 343.41 430.49 344.33 432.64 344.81 450.6 347.52 463.2 352.81 465.1 352.29 450.84 347.5 450.37 347.44 420.6 342.6"/><polygon class="cls-137" points="462.45 353.85 477.99 362.13 518.55 369.5 542.67 373.77 537.68 374.72 518.6 369.97 476.51 362.65 476.05 361.74 462.45 353.85"/><path class="cls-140" d="M319.87,369.32l191.68,3.87S417.46,367.75,319.87,369.32Z" transform="translate(0.68 0.1)"/><path class="cls-140" d="M292.27,357l185.52,5.25S357.33,356.18,292.27,357Z" transform="translate(0.68 0.1)"/><path class="cls-141" d="M419.92,342.5,361.33,344S410.58,341.63,419.92,342.5Z" transform="translate(0.68 0.1)"/><path class="cls-141" d="M375.58,342.31l41.88-1.69-1.26-1S388,341.2,375.58,342.31Z" transform="translate(0.68 0.1)"/><polygon class="cls-122" points="277.98 377.85 500.11 380.43 586.93 368.05 650.02 390.55 800.68 396.92 800.68 400.1 650.68 400.1 0.68 400.1 0.68 384.1 298.12 366.85 277.98 377.85"/><polygon class="cls-142" points="76.01 384.07 127.84 359.62 206.76 352.04 208.65 358.06 204.02 380.2 153.59 384.07 76.01 384.07"/><polygon class="cls-143" points="127.84 359.62 113.51 367.21 153.59 377.05 191.63 370.86 208.65 358.06 206.76 352.04 127.84 359.62"/><polygon class="cls-122" points="191.63 370.86 189.75 381.3 154.71 383.99 76.01 384.07 113.51 367.21 153.59 377.05 191.63 370.86"/><polygon class="cls-143" points="100.46 372.54 151.63 379.6 185.34 378.42 151.26 381.81 103.63 380.26 100.46 372.54"/><polygon class="cls-142" points="139.84 390.55 153.47 386.1 211.51 378.42 226.84 378.42 235.01 381.81 236.76 384.48 208.65 390.55 139.84 390.55"/><polygon class="cls-143" points="153.47 386.1 206.76 387.26 213.18 386.1 235.01 381.81 226.84 378.42 211.51 378.42 153.47 386.1"/><polygon class="cls-122" points="206.76 387.26 208.65 390.55 139.84 390.55 153.47 386.1 206.76 387.26"/><polygon class="cls-144" points="500.11 380.43 511.41 368.81 522.1 368.81 534.68 377.73 538.35 365.7 541.76 362.19 610.76 357.83 614.6 361.22 602.33 383.72 608.22 381.49 632.76 381.49 646.25 389.28 643.43 390.09 589.1 390.09 500.11 380.43"/><polygon class="cls-145" points="541.76 362.19 538.35 365.7 565.1 376.01 596.1 374.98 614.6 361.22 610.76 357.83 541.76 362.19"/><polygon class="cls-145" points="511.41 368.81 502.81 377.65 521.35 376.01 526.01 371.58 522.1 368.81 511.41 368.81"/><polygon class="cls-145" points="608.22 381.49 602.33 383.72 591.6 387.16 618.49 387.71 630.03 384.6 635.41 383.02 632.76 381.49 608.22 381.49"/><polygon class="cls-122" points="596.1 374.98 598.1 385.08 608.22 381.49 614.6 361.22 596.1 374.98"/><polygon class="cls-122" points="618.49 387.71 639.1 390.09 643.43 390.09 646.25 389.28 635.41 383.02 618.49 387.71"/><polygon class="cls-146" points="521.35 376.01 526.01 383.02 534.83 384.2 534.68 377.73 526.01 371.58 521.35 376.01"/><polygon class="cls-145" points="536.22 372.67 549.1 379.27 565.1 380.43 550.66 383.02 538.35 377.89 536.22 372.67"/><polygon class="cls-147" points="570.07 390.09 576.47 383.72 591.6 381.49 593.26 383.72 590.92 390.09 570.07 390.09"/><polygon class="cls-148" points="576.47 383.72 581.76 387.71 592.18 385.08 593.26 383.72 591.6 381.49 576.47 383.72"/><g class="cls-149"><polygon class="cls-150" points="450.02 376.13 453.29 384.55 466.74 397.72 471.34 398.67 469.4 382.31 467.92 380.95 467.13 376.13 450.02 376.13"/><polygon class="cls-151" points="453.29 384.55 451.83 378.5 459.36 378.47 464.86 382.98 470.11 398.41 471.34 398.67 469.4 382.31 467.92 380.95 467.13 376.13 450.02 376.13 453.29 384.55"/><polygon class="cls-152" points="469.4 382.31 464.86 382.98 459.36 378.47 459.36 376.27 467.13 376.13 467.92 380.95 469.4 382.31"/><polygon class="cls-153" points="453.29 384.55 451.83 378.5 459.36 378.47 461.7 388.4 466.74 397.72 453.29 384.55"/><polygon class="cls-153" points="468.28 398.04 467.67 391.25 470.11 398.41 468.28 398.04"/><polygon class="cls-154" points="415.92 376.27 419.1 391.37 422.38 393.3 430.91 418.61 442.93 427.75 446.15 429.02 448.89 404.6 451.17 402.98 447.26 376.13 415.92 376.27"/><polygon class="cls-155" points="442.93 427.75 446.27 410.8 438.96 393.28 423.12 393.28 422.76 394.41 422.38 393.3 421.13 392.56 422.9 392.98 438.96 392.56 435.38 388.4 433.98 376.13 447.26 376.13 451.17 402.98 448.89 399.63 445.42 383.01 442.77 380.41 445.86 399.63 448.89 404.6 446.15 429.02 442.93 427.75"/><polygon class="cls-24" points="419.1 391.37 426.45 389.05 435.38 388.4 438.96 392.56 422.9 392.98 421.13 392.56 419.1 391.37"/><polygon class="cls-153" points="430.91 418.61 422.76 394.41 423.12 393.28 428.9 393.84 436.15 403.88 435.36 418.61 436.15 422.59 430.91 418.61"/><polygon class="cls-153" points="443.94 422.59 441.76 410.8 441.76 405.93 443.32 403.73 446.27 410.8 443.94 422.59"/><polygon class="cls-156" points="433.98 376.13 435.38 388.4 438.96 392.56 435.47 392.65 435.46 393.28 438.96 393.28 441.34 399 445.86 399.63 442.77 380.41 442.94 376.17 433.98 376.13"/><polygon class="cls-157" points="448.89 399.63 447.26 376.13 445.42 376.27 445.42 383.01 448.68 399.29 448.89 399.63"/><polygon class="cls-158" points="410.65 376.54 410.65 381.28 406.95 384.97 389.66 379.11 393.93 376.54 410.65 376.54"/><polygon class="cls-24" points="389.66 379.11 392.51 378.15 408.35 380.19 410.65 381.28 406.95 384.97 389.66 379.11"/><polygon class="cls-159" points="408.35 380.19 408.35 376.54 410.65 376.54 410.65 381.28 408.35 380.19"/><polygon class="cls-125" points="418.91 376.29 415.92 416.12 416.88 416.12 419.66 376.29 418.91 376.29"/><polygon class="cls-126" points="421.13 376.29 425.21 420.91 426.19 420.77 421.85 376.29 421.13 376.29"/><polygon class="cls-125" points="441.61 376.51 460.02 414.43 461.68 414.43 442.53 376.57 441.61 376.51"/><polygon class="cls-125" points="442.94 376.53 453.3 394.83 453.99 395.34 444.28 376.54 442.94 376.53"/><polygon class="cls-126" points="410.65 376.54 412.51 407.08 413.26 407.38 411.35 378.15 414.1 409.57 415.35 410.52 412.01 376.4 410.65 376.54"/><polygon class="cls-125" points="413 376.57 419.66 414.96 420.6 414.96 413.93 376.4 413 376.57"/><polygon class="cls-125" points="462.45 376.57 475.3 406.39 477.02 406.66 462.93 376.57 474.35 397.72 475.05 397.72 463.95 376.57 462.45 376.57"/><polygon class="cls-126" points="460.68 376.57 466.03 405.78 466.74 405.78 461.01 376.57 460.68 376.57"/></g><polygon class="cls-160" points="450.02 376.13 453.29 366.36 466.74 351.09 471.34 349.99 469.4 368.95 467.92 370.53 467.13 376.13 450.02 376.13"/><polygon class="cls-161" points="453.29 366.36 451.83 373.37 459.36 373.4 464.86 368.18 470.11 350.29 471.34 349.99 469.4 368.95 467.92 370.53 467.13 376.13 450.02 376.13 453.29 366.36"/><polygon class="cls-162" points="469.4 368.95 464.86 368.18 459.36 373.4 459.36 375.95 467.13 376.13 467.92 370.53 469.4 368.95"/><polygon class="cls-153" points="453.29 366.36 451.83 373.37 459.36 373.4 461.7 361.9 466.74 351.09 453.29 366.36"/><polygon class="cls-153" points="468.28 350.72 467.67 358.59 470.11 350.29 468.28 350.72"/><polygon class="cls-163" points="415.92 375.95 419.1 358.45 422.38 356.22 430.91 326.88 442.93 316.27 446.15 314.8 448.89 343.12 451.17 344.99 447.26 376.13 415.92 375.95"/><polygon class="cls-164" points="442.93 316.27 446.27 335.93 438.96 356.23 423.12 356.23 422.76 354.93 422.38 356.22 421.13 357.07 422.9 356.58 438.96 357.07 435.38 361.9 433.98 376.13 447.26 376.13 451.17 344.99 448.89 348.88 445.42 368.15 442.77 371.16 445.86 348.88 448.89 343.12 446.15 314.8 442.93 316.27"/><polygon class="cls-165" points="419.1 358.45 426.45 361.14 435.38 361.9 438.96 357.07 422.9 356.58 421.13 357.07 419.1 358.45"/><polygon class="cls-153" points="430.91 326.88 422.76 354.93 423.12 356.23 428.9 355.59 436.15 343.94 435.36 326.88 436.15 322.25 430.91 326.88"/><polygon class="cls-153" points="443.94 322.25 441.76 335.93 441.76 341.58 443.32 344.13 446.27 335.93 443.94 322.25"/><polygon class="cls-166" points="433.98 376.13 435.38 361.9 438.96 357.07 435.47 356.96 435.46 356.23 438.96 356.23 441.34 349.61 445.86 348.88 442.77 371.16 442.94 376.07 433.98 376.13"/><polygon class="cls-167" points="448.89 348.88 447.26 376.13 445.42 375.95 445.42 368.15 448.68 349.27 448.89 348.88"/><polygon class="cls-168" points="410.65 375.64 410.65 370.14 406.95 365.87 389.66 372.67 393.93 375.64 410.65 375.64"/><polygon class="cls-24" points="389.66 372.67 392.51 373.77 408.35 371.41 410.65 370.14 406.95 365.87 389.66 372.67"/><polygon class="cls-169" points="408.35 371.41 408.35 375.64 410.65 375.64 410.65 370.14 408.35 371.41"/><polygon class="cls-137" points="467.2 375.61 482.43 375.81 454.32 376.6 455.97 376.89 383.77 376.04 393.93 375.64 410.65 375.64 410.65 374.72 416.14 374.72 415.92 375.95 447.26 375.61 447.44 374.72 450.49 374.72 450.19 375.61 467.2 375.61"/><polygon class="cls-125" points="418.91 375.94 415.92 329.76 416.88 329.76 419.66 375.94 418.91 375.94"/><polygon class="cls-170" points="421.13 375.94 425.21 324.2 426.19 324.37 421.85 375.94 421.13 375.94"/><polygon class="cls-125" points="441.61 375.67 460.02 331.72 461.68 331.72 442.53 375.61 441.61 375.67"/><polygon class="cls-125" points="442.94 375.66 453.3 354.44 453.99 353.85 444.28 375.64 442.94 375.66"/><polygon class="cls-126" points="410.65 375.64 412.51 340.24 413.26 339.89 411.35 373.77 414.1 337.35 415.35 336.25 412.01 375.81 410.65 375.64"/><polygon class="cls-125" points="413 375.61 419.66 331.1 420.6 331.1 413.93 375.81 413 375.61"/><polygon class="cls-125" points="462.45 375.61 475.3 341.04 477.02 340.72 462.93 375.61 474.35 351.09 475.05 351.09 463.95 375.61 462.45 375.61"/><polygon class="cls-126" points="460.68 375.61 466.03 341.75 466.74 341.75 461.01 375.61 460.68 375.61"/><polygon class="cls-17" points="389.66 372.67 391.76 374.13 390.6 372.67 405.52 366.85 407.18 366.85 410.16 370.41 410.65 371.93 410.65 370.14 406.95 365.87 389.66 372.67"/><polygon class="cls-17" points="419.1 358.45 422.38 356.22 425.21 324.2 426.19 324.37 424.03 349.99 430.91 326.88 442.93 316.27 446.15 314.8 447.06 324.2 445.42 316.18 442.94 317.22 431.68 327.35 423.12 356.23 423.55 352.22 422.95 352.76 422.62 357.06 419.1 358.45"/><polygon class="cls-17" points="449.76 356.22 449.76 357.06 461.68 331.72 460.02 331.72 449.76 356.22"/><polygon class="cls-17" points="416.18 354.33 419.66 331.1 420.6 331.1 417.4 352.56 416.18 354.33"/><polygon class="cls-17" points="417.57 355.33 415.92 329.76 416.88 329.76 418.01 348.6 417.57 355.33"/><polygon class="cls-17" points="413.01 351.76 414.18 350.07 415.35 336.25 414.1 337.35 413.01 351.76"/><polygon class="cls-17" points="451.17 372.69 453.29 366.36 463.88 354.33 466.03 341.75 466.74 341.75 464.78 353.31 466.74 351.09 471.34 349.99 471.1 352.34 475.3 341.04 477.02 340.72 470.98 353.55 470.77 350.79 464.59 354.44 464.8 351.97 464.38 352.21 463.88 355.33 453.99 366.29 451.17 372.69"/><polygon class="cls-125" points="650.02 390.55 661.87 325.65 664.35 324.44 653.14 378.65 668.32 318.54 675.35 318.54 669.2 379.85 675.35 338.74 676.78 338.74 670.79 391.43 682.18 332.35 683.91 332.35 673.24 391.53 692.73 357.06 694.51 356.72 676.78 392.13 650.02 390.55"/><polygon class="cls-126" points="650.02 390.55 652.55 339.93 654.14 337.6 652.08 381.49 657.43 324.04 658.82 322.1 654.14 390.55 650.02 390.55"/><polygon class="cls-126" points="676.78 392.13 696.35 364.29 698.13 363.53 678.8 392.26 676.78 392.13"/><polygon class="cls-126" points="664.35 366.85 672.27 311.84 673.68 313.2 673.68 318.54 672.8 318.41 664.35 366.85"/><polygon class="cls-170" points="275.91 391.3 257.03 310.09 259.07 306.67 276.68 391.3 275.91 391.3"/><polygon class="cls-125" points="274.95 392.42 252.81 298.35 250.3 298.12 273.23 392.42 274.95 392.42"/><polygon class="cls-125" points="284.38 389.02 297 341.75 299.41 341.63 285.35 389.02 284.38 389.02"/><polygon class="cls-126" points="275.91 391.86 257.03 453.13 259.07 455.71 276.68 391.86 275.91 391.86"/><polygon class="cls-171" points="274.95 392.42 252.81 463.4 250.3 463.58 273.23 392.42 274.95 392.42"/><polygon class="cls-171" points="284.38 389.23 297 424.89 299.41 424.99 285.35 389.23 284.38 389.23"/><polygon class="cls-137" points="266.86 391.61 276.68 391.3 289.12 392.42 273.23 392.42 266.86 391.61"/><polygon class="cls-137" points="282.12 389.02 285.35 389.02 289.12 389.43 282.12 389.02"/><polygon class="cls-172" points="257.03 310.09 266.86 342.73 259.07 306.67 257.03 310.09"/><polygon class="cls-172" points="250.3 298.12 258.52 331.93 261.94 337.18 252.81 298.35 250.3 298.12"/><polygon class="cls-172" points="297 341.75 291.49 362.39 295.14 356.02 299.41 341.63 297 341.75"/><g class="cls-149"><polygon class="cls-125" points="521.35 395.94 538.35 455.11 552.17 486.3 554.76 485.87 540 454.59 523.43 395.94 521.35 395.94"/><polygon class="cls-125" points="519.87 395.94 513.62 461.19 512.23 461.19 518.99 395.94 519.87 395.94"/><polygon class="cls-126" points="533.19 396.79 578.9 449.27 581.13 449.27 534.49 396.79 533.19 396.79"/><polygon class="cls-126" points="523.43 395.94 547.55 468.82 549.79 471.16 525.25 395.94 523.43 395.94"/></g><polygon class="cls-125" points="521.35 396.28 538.35 340.72 552.17 311.43 554.76 311.84 540 341.21 523.43 396.28 521.35 396.28"/><polygon class="cls-125" points="519.87 396.28 513.62 335.01 512.23 335.01 518.99 396.28 519.87 396.28"/><polygon class="cls-126" points="533.19 397.31 578.9 348.03 581.13 348.03 534.49 397.31 533.19 397.31"/><polygon class="cls-126" points="523.43 396.28 547.55 327.85 549.79 325.65 525.25 396.28 523.43 396.28"/><polygon class="cls-173" points="512.23 396.28 522.43 395.76 532.93 396.28 512.23 396.28"/><polygon class="cls-173" points="530.32 397.31 534.97 396.79 538.44 397.31 530.32 397.31"/><polygon class="cls-125" points="84.19 103.43 72.04 127.18 61.18 148.43 57.51 147.8 66.08 114.71 71.65 93.2 73.64 91.6 67.04 116.73 58.85 147.96 62.01 145.6 69.7 122.27 71.04 118.19 84.19 103.43"/><polygon class="cls-125" points="52.49 146.63 49.06 103.85 50.1 102.27 53.23 146.76 52.49 146.63"/><polygon class="cls-170" points="73.64 91.6 67.04 116.73 66.08 114.71 71.65 93.2 73.64 91.6"/><polygon class="cls-170" points="84.19 103.43 72.04 127.18 69.7 122.27 71.04 118.19 84.19 103.43"/><polygon class="cls-125" points="122.44 249.43 136.72 220.12 135.63 219.22 121.41 249.43 122.44 249.43"/><polygon class="cls-125" points="116.18 248.18 119.55 225.1 121.41 225.1 116.92 248.98 116.18 248.18"/><polygon class="cls-125" points="617.66 232.1 611.64 235.68 586.93 224.14 588.51 223.26 609.76 233.48 598.93 225.6 600 224.47 611.1 231.85 603.3 213.26 608.13 209.51 612.25 222.2 609.76 208.01 611.1 208.01 616.74 230.1 619.35 230.49 627.15 190.85 628.3 190.85 620.22 232.82 617.66 232.1"/><polygon class="cls-170" points="615.61 233.48 608.13 201.34 610.26 199.45 617.66 232.1 615.61 233.48"/><polygon class="cls-125" points="744.89 237.43 726.35 188.76 726.35 184.75 746.57 238.1 744.89 237.43"/><polygon class="cls-125" points="763.82 245.8 775.68 222.42 776.73 222.91 764.62 245.8 763.82 245.8"/><polygon class="cls-126" points="761.48 244.76 763.82 214.84 764.93 215.2 762.29 245.12 761.48 244.76"/><polygon class="cls-126" points="745.43 96.72 727.91 82.72 728.85 82.43 747.18 96.45 741.35 88.02 742.52 88.02 748.35 96.27 745.43 96.72"/><polygon class="cls-125" points="173.94 125.53 190.11 107.33 191.84 107.67 174.32 127.1 173.94 125.53"/><polygon class="cls-170" points="170.8 113.07 181.17 94.38 180.02 93.73 170.41 111.47 170.8 113.07"/><polygon class="cls-125" points="200.4 261.83 207.51 239.76 208.56 241.26 200.4 262.75 200.4 261.83"/><polygon class="cls-125" points="552.17 277.72 540 266.6 540 265.26 552.17 277 552.17 277.72"/><polygon class="cls-125" points="551.99 275.22 537.35 257.22 538.05 255.91 551.99 273.6 551.99 275.22"/></g></g></g></svg>