<svg xmlns="http://www.w3.org/2000/svg" xmlns:xlink="http://www.w3.org/1999/xlink" viewBox="0 0 806.3 61.84"><defs><style>.cls-1{fill:none;}.cls-2{isolation:isolate;}.cls-3{clip-path:url(#clip-path);}.cls-10,.cls-11,.cls-12,.cls-13,.cls-14,.cls-15,.cls-16,.cls-17,.cls-4,.cls-5,.cls-6,.cls-7,.cls-8,.cls-9{fill-rule:evenodd;}.cls-4{fill:url(#Áåçûìÿííûé_ãðàäèåíò_147);}.cls-5{fill:url(#Áåçûìÿííûé_ãðàäèåíò_198);}.cls-10,.cls-6,.cls-7,.cls-8,.cls-9{mix-blend-mode:multiply;}.cls-6{fill:url(#Áåçûìÿííûé_ãðàäèåíò_169);}.cls-7{fill:url(#Áåçûìÿííûé_ãðàäèåíò_169-2);}.cls-8{fill:url(#Áåçûìÿííûé_ãðàäèåíò_169-3);}.cls-9{fill:url(#Áåçûìÿííûé_ãðàäèåíò_169-4);}.cls-10{fill:url(#Áåçûìÿííûé_ãðàäèåíò_178);}.cls-11{fill:#1a002e;}.cls-12{fill:url(#Áåçûìÿííûé_ãðàäèåíò_60);}.cls-13{fill:#6a81ff;}.cls-14{fill:url(#Áåçûìÿííûé_ãðàäèåíò_32);}.cls-15{fill:url(#Áåçûìÿííûé_ãðàäèåíò_32-2);}.cls-16{fill:#b0b8ff;}.cls-16,.cls-17{mix-blend-mode:soft-light;}.cls-17{fill:#cfd4ff;}</style><clipPath id="clip-path" transform="translate(6.3 1.58)"><rect class="cls-1" x="-6.3" y="-1.58" width="806.3" height="403.15" transform="translate(793.7 400) rotate(180)"/></clipPath><linearGradient id="Áåçûìÿííûé_ãðàäèåíò_147" x1="396.85" y1="401.58" x2="396.85" y2="339.73" gradientTransform="translate(800 401.58) rotate(180)" gradientUnits="userSpaceOnUse"><stop offset="0.01" stop-color="#2a0036"/><stop offset="0.29" stop-color="#2b0239"/><stop offset="0.49" stop-color="#2e0842"/><stop offset="0.65" stop-color="#341251"/><stop offset="0.81" stop-color="#3d2067"/><stop offset="0.95" stop-color="#473282"/><stop offset="1" stop-color="#4c3b8f"/></linearGradient><radialGradient id="Áåçûìÿííûé_ãðàäèåíò_198" cx="394.08" cy="338.48" r="121.2" gradientTransform="translate(800 401.58) rotate(180)" gradientUnits="userSpaceOnUse"><stop offset="0" stop-color="#599dff"/><stop offset="1" stop-color="#632fd9"/></radialGradient><linearGradient id="Áåçûìÿííûé_ãðàäèåíò_169" x1="282.24" y1="401.58" x2="282.24" y2="343.75" gradientTransform="translate(800 401.58) rotate(180)" gradientUnits="userSpaceOnUse"><stop offset="0" stop-color="#fff"/><stop offset="1" stop-color="#6d458b"/></linearGradient><linearGradient id="Áåçûìÿííûé_ãðàäèåíò_169-2" x1="509.28" y1="401.58" x2="509.28" y2="342.22" xlink:href="#Áåçûìÿííûé_ãðàäèåíò_169"/><linearGradient id="Áåçûìÿííûé_ãðàäèåíò_169-3" x1="539.92" y1="401.58" x2="539.92" y2="356.45" xlink:href="#Áåçûìÿííûé_ãðàäèåíò_169"/><linearGradient id="Áåçûìÿííûé_ãðàäèåíò_169-4" x1="308.57" y1="401.58" x2="308.57" y2="350.51" xlink:href="#Áåçûìÿííûé_ãðàäèåíò_169"/><linearGradient id="Áåçûìÿííûé_ãðàäèåíò_178" x1="246.94" y1="401.58" x2="246.94" y2="382.83" gradientTransform="translate(800 401.58) rotate(180)" gradientUnits="userSpaceOnUse"><stop offset="0" stop-color="#9090a9"/><stop offset="1" stop-color="#402f5c"/></linearGradient><linearGradient id="Áåçûìÿííûé_ãðàäèåíò_60" x1="476.98" y1="391.37" x2="621.61" y2="391.37" gradientTransform="translate(800 401.58) rotate(180)" gradientUnits="userSpaceOnUse"><stop offset="0.01" stop-color="#1b0033"/><stop offset="1" stop-color="#410f37"/></linearGradient><linearGradient id="Áåçûìÿííûé_ãðàäèåíò_32" x1="527.27" y1="401.58" x2="527.27" y2="383.81" gradientTransform="translate(800 401.58) rotate(180)" gradientUnits="userSpaceOnUse"><stop offset="0" stop-color="#7c6de7"/><stop offset="0.37" stop-color="#7c71e6"/><stop offset="0.76" stop-color="#7b7ee1"/><stop offset="1" stop-color="#7b8add"/></linearGradient><linearGradient id="Áåçûìÿííûé_ãðàäèåíò_32-2" x1="261.36" y1="401.58" x2="261.36" y2="371.84" xlink:href="#Áåçûìÿííûé_ãðàäèåíò_32"/></defs><g class="cls-2"><g id="canyon"><g class="cls-3"><polygon class="cls-4" points="337.28 53.69 385.29 60.87 431.25 61.84 431.25 59.09 514.62 48.71 506.52 33.51 509.91 31.5 806.3 16.13 806.3 0 332.35 0 0 0 0 3.2 151.84 9.62 224.76 32.5 320.76 41.07 322.02 45.1 322.02 45.1 337.28 53.69"/><polygon class="cls-5" points="178.39 0 641.51 0 598.91 6.53 538.93 15.73 512.38 22.17 489.86 27.64 483.91 30.92 485.37 32.29 506.52 33.51 511.73 43.3 512.49 44.71 451.86 55.26 433.94 57.71 433.9 57.71 418.35 59.85 423.55 61.68 386.82 60.9 383.85 59.35 382.32 58.56 352.84 53.52 337.29 48.44 341.17 47.38 336.53 45.12 324.29 39.18 256 27.78 262.73 25.7 320.76 20.41 315.12 18.42 245.92 10.09 199.98 3.23 182.89 0.68 178.39 0"/><polygon class="cls-6" points="430.03 0 605.48 0 598.91 6.53 538.93 15.73 489.86 27.64 483.91 30.92 485.37 32.29 506.52 33.51 511.73 43.3 512.49 44.71 451.86 55.26 433.94 57.71 431.25 57.82 431.25 57.82 430.03 0"/><polygon class="cls-7" points="196.67 0 382.16 0 384.78 59.14 383.85 59.35 382.32 58.56 352.84 53.52 337.29 48.44 341.17 47.38 324.29 39.18 256 27.78 262.73 25.7 320.76 20.41 315.12 18.42 245.92 10.09 199.98 3.23 196.67 0"/><polygon class="cls-8" points="182.87 0 337.29 0 337.29 44.69 336.53 45.12 324.29 39.18 256 27.78 262.73 25.7 320.76 20.41 315.12 18.42 245.92 10.09 199.98 3.23 182.89 0.68 182.87 0 182.87 0"/><polygon class="cls-9" points="469.78 0 513.07 0 512.38 22.17 489.86 27.64 483.91 30.92 485.37 32.29 506.52 33.51 511.73 43.3 470.97 51.07 469.78 0"/><polygon class="cls-10" points="508.27 18.75 508.27 0 597.84 0 596.69 6.16 508.27 18.75"/><polygon class="cls-11" points="641.51 0 597.84 0 592.38 4.03 588.1 2.02 530.14 11.87 488.32 24.95 482.33 29.73 485.38 32.3 506.52 33.51 511.73 43.3 452.45 54.84 418.02 59.67 418.35 59.84 452.76 55.18 512.48 44.71 506.52 33.51 506.52 33.51 485.38 32.3 484.27 31.26 489.85 27.63 538.93 15.74 641.51 0"/><polygon class="cls-12" points="178.39 0 245.92 10.09 315.13 18.43 320.76 20.41 323.02 17.21 315.53 15.14 242.19 6.16 217.51 0 178.39 0"/><polygon class="cls-11" points="260.04 26.53 324.75 38.01 341.54 46.96 341.17 47.38 338.22 48.19 352.84 52.99 383.08 57.95 387.31 60.91 386.82 60.9 382.32 58.55 352.84 53.52 337.28 48.44 341.17 47.38 324.29 39.18 256 27.78 260.04 26.53"/><path class="cls-13" d="M488.06,45.11,445.4,53.4s.68-1.2,3.12-.93l1.73-.25s3.6-1.45,16-3.37S488.06,45.11,488.06,45.11Z" transform="translate(6.3 1.58)"/><path class="cls-13" d="M498.71,43.09l-6.62,1.19A8,8,0,0,1,498.71,43.09Z" transform="translate(6.3 1.58)"/><polygon class="cls-14" points="315.53 15.14 323.02 17.21 322.58 17.76 327.94 16.45 315.53 14.53 223.62 0 217.51 0 242.19 6.16 315.53 15.14"/><polygon class="cls-15" points="482.33 29.73 479.44 29.34 487.31 24.69 511.48 16.15 589.1 0 597.84 0 592.38 4.03 586.71 2.52 505.01 19.66 487.06 25.95 482.33 29.73"/><polygon class="cls-13" points="383.08 57.95 381.8 57.13 373.1 56.2 370.94 55.73 352.84 52.99 340.14 47.66 338.22 48.19 352.6 53.01 353.07 53.07 383.08 57.95"/><polygon class="cls-13" points="340.89 46.61 325.23 38.27 284.35 30.84 260.04 26.53 265.07 25.57 284.31 30.36 326.72 37.74 327.19 38.66 340.89 46.61"/><path class="cls-16" d="M477.61,29.35l-193.19-3.9S379.25,30.93,477.61,29.35Z" transform="translate(6.3 1.58)"/><path class="cls-16" d="M505.43,41.72l-187-5.29S439.85,42.59,505.43,41.72Z" transform="translate(6.3 1.58)"/><path class="cls-17" d="M376.78,56.38l59-1.51S386.19,57.25,376.78,56.38Z" transform="translate(6.3 1.58)"/><path class="cls-17" d="M421.46,56.57l-42.21,1.7,1.27,1S408.94,57.69,421.46,56.57Z" transform="translate(6.3 1.58)"/></g></g></g></svg>