<svg data-v-423bf9ae="" xmlns="http://www.w3.org/2000/svg" viewBox="0 0 286.73405643896444 163" class="iconAbove"><!----><!----><!----><g data-v-423bf9ae="" id="e03d41ad-a175-44e3-b4aa-021f8144c8ba" fill="white" transform="matrix(3.790271654401439,0,0,3.790271654401439,-0.7959532772509021,93.86544808701242)"><path d="M9.97 8.72L9.97 8.72L9.97 8.72Q9.97 9.56 9.70 10.31L9.70 10.31L9.70 10.31Q9.43 11.05 8.96 11.66L8.96 11.66L8.96 11.66Q8.49 12.26 7.85 12.71L7.85 12.71L7.85 12.71Q7.22 13.17 6.49 13.47L6.49 13.47L6.49 13.47Q5.02 14.08 3.39 14.08L3.39 14.08L1.19 14.08L1.19 14.08Q1.71 13.54 1.71 12.13L1.71 12.13L1.71 5.17L0.21 5.17L0.21 5.17Q0.31 5.15 0.67 4.83L0.67 4.83L0.67 4.83Q1.35 4.25 1.53 4.25L1.53 4.25L4.57 4.24L4.57 4.24Q6.84 4.24 8.31 5.26L8.31 5.26L8.31 5.26Q9.97 6.42 9.97 8.72ZM8.41 11.26L8.41 11.26L8.41 11.26Q8.65 10.60 8.65 9.71L8.65 9.71L8.65 9.71Q8.65 8.82 8.47 8.14L8.47 8.14L8.47 8.14Q8.29 7.46 7.94 6.96L7.94 6.96L7.94 6.96Q7.60 6.46 7.11 6.12L7.11 6.12L7.11 6.12Q6.62 5.78 6.00 5.56L6.00 5.56L6.00 5.56Q4.82 5.17 3.04 5.17L3.04 5.17L3.04 11.76L3.04 11.76Q3.04 12.46 2.83 12.82L2.83 12.82L2.83 12.82Q2.74 12.97 2.60 13.17L2.60 13.17L4.87 13.17L4.87 13.17Q7.72 13.17 8.41 11.26ZM17.25 7.44L17.25 7.44L17.25 7.44Q16.42 8.65 15.24 8.65L15.24 8.65L15.24 8.65Q15.05 8.65 14.75 8.50L14.75 8.50L14.75 8.50Q14.18 8.22 13.98 8.22L13.98 8.22L13.98 8.22Q13.77 8.22 13.65 8.35L13.65 8.35L13.65 8.35Q13.53 8.48 13.45 8.71L13.45 8.71L13.45 8.71Q13.26 9.21 13.26 10.02L13.26 10.02L13.26 12.64L13.26 12.64Q13.26 13.08 13.53 13.23L13.53 13.23L13.53 13.23Q13.62 13.30 13.77 13.30L13.77 13.30L13.77 13.30Q13.91 13.30 14.07 13.23L14.07 13.23L14.07 13.23Q13.93 13.35 13.80 13.52L13.80 13.52L13.80 13.52Q13.67 13.69 13.51 13.84L13.51 13.84L13.51 13.84Q13.12 14.22 12.58 14.22L12.58 14.22L12.58 14.22Q12.31 14.22 12.12 14.04L12.12 14.04L12.12 14.04Q11.93 13.87 11.93 13.62L11.93 13.62L11.93 9.68L11.93 9.68Q11.93 9.44 11.94 9.20L11.94 9.20L11.94 9.20Q11.94 8.96 11.89 8.76L11.89 8.76L11.89 8.76Q11.76 8.33 11.14 8.33L11.14 8.33L11.14 8.33Q10.85 8.33 10.55 8.44L10.55 8.44L10.55 8.44Q10.73 8.38 11.01 8.12L11.01 8.12L11.01 8.12Q11.56 7.63 11.77 7.55L11.77 7.55L11.77 7.55Q12.21 7.39 12.48 7.39L12.48 7.39L12.48 7.39Q12.75 7.39 12.90 7.47L12.90 7.47L12.90 7.47Q13.04 7.55 13.13 7.68L13.13 7.68L13.13 7.68Q13.26 7.91 13.26 8.38L13.26 8.38L13.26 8.38Q13.46 8.23 13.70 8.04L13.70 8.04L13.70 8.04Q13.93 7.85 14.18 7.68L14.18 7.68L14.18 7.68Q14.79 7.28 15.24 7.28L15.24 7.28L15.24 7.28Q15.51 7.28 15.80 7.43L15.80 7.43L15.80 7.43Q16.10 7.58 16.24 7.65L16.24 7.65L16.24 7.65Q16.39 7.72 16.51 7.72L16.51 7.72L16.51 7.72Q16.78 7.72 17.25 7.44ZM21.64 9.28L21.64 12.06L21.63 12.54L21.63 12.54Q21.63 13.07 21.93 13.21L21.93 13.21L21.93 13.21Q22.05 13.27 22.20 13.27L22.20 13.27L22.20 13.27Q22.44 13.27 22.69 13.16L22.69 13.16L22.69 13.16Q22.43 13.27 22.24 13.45L22.24 13.45L22.24 13.45Q22.05 13.62 21.85 13.79L21.85 13.79L21.85 13.79Q21.36 14.21 20.86 14.21L20.86 14.21L20.86 14.21Q20.36 14.21 20.32 13.63L20.32 13.63L20.32 13.63Q20.31 13.48 20.31 13.33L20.31 13.33L20.31 13.33Q19.08 14.18 18.05 14.18L18.05 14.18L18.05 14.18Q17.19 14.18 16.85 13.66L16.85 13.66L16.85 13.66Q16.73 13.47 16.73 13.13L16.73 13.13L16.73 13.13Q16.73 12.80 16.93 12.46L16.93 12.46L16.93 12.46Q17.14 12.12 17.45 11.84L17.45 11.84L17.45 11.84Q18.01 11.32 18.81 10.99L18.81 10.99L18.81 10.99Q19.39 10.73 20.32 10.70L20.32 10.70L20.32 10.40L20.32 10.40Q20.32 9.31 20.12 8.93L20.12 8.93L20.12 8.93Q19.92 8.54 19.61 8.36L19.61 8.36L19.61 8.36Q19.29 8.18 18.87 8.18L18.87 8.18L18.87 8.18Q18.15 8.18 17.60 8.46L17.60 8.46L17.60 8.46Q18.35 7.84 18.70 7.64L18.70 7.64L18.70 7.64Q19.42 7.24 20.01 7.24L20.01 7.24L20.01 7.24Q20.59 7.24 20.88 7.41L20.88 7.41L20.88 7.41Q21.18 7.58 21.35 7.86L21.35 7.86L21.35 7.86Q21.64 8.35 21.64 9.28L21.64 9.28ZM18.43 13.04L18.43 13.04L18.43 13.04Q18.59 13.16 18.81 13.21L18.81 13.21L18.81 13.21Q19.03 13.27 19.46 13.27L19.46 13.27L19.46 13.27Q19.89 13.27 20.32 13.06L20.32 13.06L20.32 11.63L19.21 11.63L19.21 11.63Q18.61 11.63 18.17 11.71L18.17 11.71L18.17 11.71Q18.08 12.00 18.08 12.27L18.08 12.27L18.08 12.27Q18.08 12.54 18.17 12.73L18.17 12.73L18.17 12.73Q18.27 12.92 18.43 13.04ZM27.25 7.39L29.24 7.44L29.24 7.44Q29.61 7.44 29.84 7.29L29.84 7.29L29.84 7.29Q29.83 7.53 29.31 7.87L29.31 7.87L29.31 7.87Q28.88 8.16 28.57 8.23L28.57 8.23L28.57 8.23Q28.83 8.73 28.83 9.32L28.83 9.32L28.83 9.32Q28.83 9.91 28.60 10.36L28.60 10.36L28.60 10.36Q28.37 10.82 28.02 11.17L28.02 11.17L28.02 11.17Q27.68 11.52 27.28 11.78L27.28 11.78L27.28 11.78Q26.87 12.04 26.53 12.25L26.53 12.25L26.53 12.25Q26.18 12.46 25.95 12.65L25.95 12.65L25.95 12.65Q25.72 12.83 25.72 13.01L25.72 13.01L25.72 13.01Q25.72 13.19 25.80 13.32L25.80 13.32L25.80 13.32Q25.88 13.45 26.00 13.55L26.00 13.55L26.00 13.55Q26.23 13.73 26.48 13.83L26.48 13.83L26.48 13.83Q26.73 13.92 27.04 14.03L27.04 14.03L27.04 14.03Q27.35 14.14 27.71 14.29L27.71 14.29L27.71 14.29Q28.06 14.44 28.43 14.61L28.43 14.61L28.43 14.61Q28.80 14.79 29.09 15.00L29.09 15.00L29.09 15.00Q29.76 15.47 29.76 15.95L29.76 15.95L29.76 15.95Q29.76 16.43 29.06 16.98L29.06 16.98L29.06 16.98Q28 17.82 26.31 18.14L26.31 18.14L26.31 18.14Q25.77 18.24 25.41 18.24L25.41 18.24L25.41 18.24Q25.05 18.24 24.79 18.21L24.79 18.21L24.79 18.21Q24.53 18.19 24.26 18.14L24.26 18.14L24.26 18.14Q23.98 18.09 23.71 18.01L23.71 18.01L23.71 18.01Q23.45 17.92 23.24 17.80L23.24 17.80L23.24 17.80Q22.76 17.53 22.76 17.18L22.76 17.18L22.76 17.18Q22.76 16.83 22.89 16.57L22.89 16.57L22.89 16.57Q23.02 16.31 23.24 16.09L23.24 16.09L23.24 16.09Q23.45 15.87 23.71 15.70L23.71 15.70L23.71 15.70Q23.98 15.52 24.25 15.36L24.25 15.36L24.25 15.36Q24.53 15.21 24.78 15.08L24.78 15.08L24.78 15.08Q25.03 14.94 25.22 14.82L25.22 14.82L25.22 14.82Q24.41 14.49 24.41 14.03L24.41 14.03L24.41 14.03Q24.41 13.57 25.41 12.90L25.41 12.90L25.41 12.90Q25.65 12.74 25.79 12.63L25.79 12.63L25.79 12.63Q25.50 12.72 25.13 12.72L25.13 12.72L25.13 12.72Q24.77 12.72 24.42 12.53L24.42 12.53L24.42 12.53Q24.08 12.35 23.84 12.04L23.84 12.04L23.84 12.04Q23.36 11.42 23.36 10.56L23.36 10.56L23.36 10.56Q23.36 9.70 24.00 8.93L24.00 8.93L24.00 8.93Q24.57 8.25 25.51 7.81L25.51 7.81L25.51 7.81Q26.41 7.39 27.25 7.39L27.25 7.39ZM24.87 8.59L24.87 8.59L24.87 8.59Q24.69 8.86 24.69 9.47L24.69 9.47L24.69 9.47Q24.69 10.08 24.80 10.47L24.80 10.47L24.80 10.47Q24.91 10.86 25.14 11.16L25.14 11.16L25.14 11.16Q25.65 11.81 26.56 11.81L26.56 11.81L26.56 11.81Q27.08 11.81 27.32 11.29L27.32 11.29L27.32 11.29Q27.50 10.92 27.50 10.41L27.50 10.41L27.50 10.41Q27.50 9.44 27.08 8.88L27.08 8.88L27.08 8.88Q26.65 8.33 25.85 8.33L25.85 8.33L25.85 8.33Q25.05 8.33 24.87 8.59ZM28.08 17.09L28.08 17.09L28.08 17.09Q28.25 16.99 28.32 16.86L28.32 16.86L28.32 16.86Q28.40 16.72 28.40 16.50L28.40 16.50L28.40 16.50Q28.40 16.28 28.14 16.05L28.14 16.05L28.14 16.05Q27.89 15.83 27.48 15.64L27.48 15.64L27.48 15.64Q27.08 15.46 25.52 14.93L25.52 14.93L25.52 14.93Q24.89 15.20 24.64 15.40L24.64 15.40L24.64 15.40Q24.14 15.83 24.14 16.36L24.14 16.36L24.14 16.36Q24.14 16.76 26.02 17.16L26.02 17.16L26.02 17.16Q26.68 17.30 27.01 17.30L27.01 17.30L27.01 17.30Q27.34 17.30 27.62 17.25L27.62 17.25L27.62 17.25Q27.91 17.19 28.08 17.09ZM35.72 8.18L35.72 8.18L35.72 8.18Q36.07 8.57 36.27 9.08L36.27 9.08L36.27 9.08Q36.46 9.59 36.46 10.10L36.46 10.10L36.46 10.10Q36.46 10.62 36.31 11.10L36.31 11.10L36.31 11.10Q36.16 11.59 35.89 12.04L35.89 12.04L35.89 12.04Q35.62 12.50 35.26 12.89L35.26 12.89L35.26 12.89Q34.89 13.28 34.45 13.58L34.45 13.58L34.45 13.58Q33.52 14.20 32.57 14.20L32.57 14.20L32.57 14.20Q31.46 14.20 30.68 13.33L30.68 13.33L30.68 13.33Q29.92 12.50 29.92 11.38L29.92 11.38L29.92 11.38Q29.92 10.42 30.50 9.45L30.50 9.45L30.50 9.45Q31.37 7.99 32.87 7.48L32.87 7.48L32.87 7.48Q33.35 7.31 33.88 7.31L33.88 7.31L33.88 7.31Q34.41 7.31 34.89 7.54L34.89 7.54L34.89 7.54Q35.38 7.78 35.72 8.18ZM32.49 8.22L32.49 8.22L32.49 8.22Q31.81 8.22 31.49 8.89L31.49 8.89L31.49 8.89Q31.25 9.41 31.25 10.06L31.25 10.06L31.25 10.06Q31.25 10.72 31.42 11.28L31.42 11.28L31.42 11.28Q31.60 11.85 31.94 12.29L31.94 12.29L31.94 12.29Q32.70 13.29 33.89 13.29L33.89 13.29L33.89 13.29Q34.59 13.29 34.90 12.59L34.90 12.59L34.90 12.59Q35.13 12.07 35.13 11.40L35.13 11.40L35.13 11.40Q35.13 10.08 34.40 9.15L34.40 9.15L34.40 9.15Q33.66 8.22 32.49 8.22ZM38.25 13.62L38.25 13.62L38.26 9.22L38.26 9.22Q38.26 8.76 38.14 8.61L38.14 8.61L38.14 8.61Q37.93 8.33 37.55 8.33L37.55 8.33L37.55 8.33Q37.17 8.33 36.88 8.44L36.88 8.44L36.88 8.44Q37.06 8.37 37.34 8.12L37.34 8.12L37.34 8.12Q37.87 7.64 38.09 7.55L38.09 7.55L38.09 7.55Q38.50 7.39 38.81 7.39L38.81 7.39L38.81 7.39Q39.12 7.39 39.28 7.49L39.28 7.49L39.28 7.49Q39.43 7.59 39.50 7.77L39.50 7.77L39.50 7.77Q39.59 7.98 39.59 8.57L39.59 8.57L39.59 8.57Q40.87 7.44 41.98 7.44L41.98 7.44L41.98 7.44Q42.59 7.44 43.04 7.83L43.04 7.83L43.04 7.83Q43.51 8.24 43.51 8.83L43.51 8.83L43.51 12.20L43.51 12.20Q43.51 12.71 43.62 12.90L43.62 12.90L43.62 12.90Q43.83 13.26 44.30 13.26L44.30 13.26L44.30 13.26Q44.58 13.26 44.82 13.16L44.82 13.16L44.82 13.16Q44.21 13.69 43.98 13.84L43.98 13.84L43.98 13.84Q43.45 14.18 43.05 14.18L43.05 14.18L43.05 14.18Q42.65 14.18 42.48 14.04L42.48 14.04L42.48 14.04Q42.31 13.90 42.25 13.68L42.25 13.68L42.25 13.68Q42.17 13.44 42.17 12.70L42.17 12.70L42.17 10.14L42.17 10.14Q42.17 8.92 41.37 8.53L41.37 8.53L41.37 8.53Q41.08 8.39 40.68 8.39L40.68 8.39L40.68 8.39Q39.69 8.39 39.61 9.86L39.61 9.86L39.61 9.86Q39.59 10.23 39.59 10.53L39.59 10.53L39.59 12.64L39.59 12.64Q39.59 13.08 39.85 13.23L39.85 13.23L39.85 13.23Q39.95 13.30 40.09 13.30L40.09 13.30L40.09 13.30Q40.24 13.30 40.39 13.23L40.39 13.23L40.39 13.23Q40.25 13.35 40.05 13.52L40.05 13.52L40.05 13.52Q39.85 13.69 39.63 13.85L39.63 13.85L39.63 13.85Q39.09 14.22 38.77 14.22L38.77 14.22L38.77 14.22Q38.25 14.22 38.25 13.62ZM53.09 8.79L53.09 8.79L53.09 8.79Q53.22 8.65 53.22 8.59L53.22 8.59L53.22 8.59Q53.22 8.52 53.13 8.46L53.13 8.46L53.13 8.46Q53.04 8.39 52.89 8.34L52.89 8.34L52.89 8.34Q52.75 8.29 52.57 8.25L52.57 8.25L52.57 8.25Q52.39 8.20 52.23 8.18L52.23 8.18L52.23 8.18Q51.88 8.11 51.56 8.11L51.56 8.11L51.56 8.11Q51.24 8.11 50.90 8.30L50.90 8.30L50.90 8.30Q50.57 8.50 50.37 8.82L50.37 8.82L50.37 8.82Q50.03 9.39 50.03 10.21L50.03 10.21L50.03 10.21Q50.03 11.03 50.20 11.56L50.20 11.56L50.20 11.56Q50.38 12.09 50.72 12.47L50.72 12.47L50.72 12.47Q51.44 13.26 52.75 13.26L52.75 13.26L52.75 13.26Q53.58 13.26 54.32 12.85L54.32 12.85L54.32 12.85Q53.46 13.78 52.14 14.10L52.14 14.10L52.14 14.10Q51.72 14.19 51.21 14.19L51.21 14.19L51.21 14.19Q50.71 14.19 50.22 13.98L50.22 13.98L50.22 13.98Q49.72 13.77 49.38 13.39L49.38 13.39L49.38 13.39Q48.68 12.62 48.68 11.39L48.68 11.39L48.68 11.39Q48.68 10.39 49.37 9.38L49.37 9.38L49.37 9.38Q50.39 7.90 52.06 7.37L52.06 7.37L52.06 7.37Q52.58 7.20 53.00 7.20L53.00 7.20L53.00 7.20Q54.00 7.20 54.49 7.57L54.49 7.57L54.49 7.57Q54.54 7.61 54.54 7.68L54.54 7.68L54.54 7.68Q54.54 7.92 53.55 8.57L53.55 8.57L53.55 8.57Q53.19 8.79 53.09 8.79ZM60.90 8.18L60.90 8.18L60.90 8.18Q61.25 8.57 61.44 9.08L61.44 9.08L61.44 9.08Q61.64 9.59 61.64 10.10L61.64 10.10L61.64 10.10Q61.64 10.62 61.49 11.10L61.49 11.10L61.49 11.10Q61.34 11.59 61.07 12.04L61.07 12.04L61.07 12.04Q60.80 12.50 60.43 12.89L60.43 12.89L60.43 12.89Q60.07 13.28 59.63 13.58L59.63 13.58L59.63 13.58Q58.70 14.20 57.75 14.20L57.75 14.20L57.75 14.20Q56.64 14.20 55.86 13.33L55.86 13.33L55.86 13.33Q55.10 12.50 55.10 11.38L55.10 11.38L55.10 11.38Q55.10 10.42 55.68 9.45L55.68 9.45L55.68 9.45Q56.55 7.99 58.04 7.48L58.04 7.48L58.04 7.48Q58.52 7.31 59.06 7.31L59.06 7.31L59.06 7.31Q59.59 7.31 60.07 7.54L60.07 7.54L60.07 7.54Q60.55 7.78 60.90 8.18ZM57.67 8.22L57.67 8.22L57.67 8.22Q56.98 8.22 56.67 8.89L56.67 8.89L56.67 8.89Q56.42 9.41 56.42 10.06L56.42 10.06L56.42 10.06Q56.42 10.72 56.60 11.28L56.60 11.28L56.60 11.28Q56.77 11.85 57.11 12.29L57.11 12.29L57.11 12.29Q57.87 13.29 59.07 13.29L59.07 13.29L59.07 13.29Q59.77 13.29 60.08 12.59L60.08 12.59L60.08 12.59Q60.31 12.07 60.31 11.40L60.31 11.40L60.31 11.40Q60.31 10.08 59.57 9.15L59.57 9.15L59.57 9.15Q58.84 8.22 57.67 8.22ZM64.91 7.86L64.91 7.86Q65.39 7.59 65.92 7.45L65.92 7.45L65.92 7.45Q66.45 7.30 66.81 7.30L66.81 7.30L66.81 7.30Q67.17 7.30 67.44 7.35L67.44 7.35L67.44 5.11L67.44 5.11Q67.44 4.38 67.18 4.14L67.18 4.14L67.18 4.14Q67.05 4.03 66.88 4.03L66.88 4.03L66.88 4.03Q66.66 4.03 66.25 4.13L66.25 4.13L66.25 4.13Q67.97 2.82 68.77 2.41L68.77 2.41L68.77 12.19L68.77 12.19Q68.77 12.74 68.89 12.92L68.89 12.92L68.89 12.92Q69.09 13.26 69.60 13.26L69.60 13.26L69.60 13.26Q69.80 13.26 70 13.22L70 13.22L70 13.22Q69.80 13.38 69.61 13.55L69.61 13.55L69.61 13.55Q69.41 13.72 69.20 13.86L69.20 13.86L69.20 13.86Q68.71 14.19 68.35 14.19L68.35 14.19L68.35 14.19Q67.98 14.19 67.82 14.12L67.82 14.12L67.82 14.12Q67.66 14.05 67.57 13.92L67.57 13.92L67.57 13.92Q67.43 13.73 67.43 13.18L67.43 13.18L67.43 13.18Q66.03 14.22 65.18 14.22L65.18 14.22L65.18 14.22Q63.93 14.22 63.27 13.38L63.27 13.38L63.27 13.38Q62.65 12.62 62.65 11.33L62.65 11.33L62.65 11.33Q62.65 10.28 63.31 9.32L63.31 9.32L63.31 9.32Q63.92 8.42 64.91 7.86L64.91 7.86ZM67.44 12.60L67.44 9.21L67.44 9.21Q67.14 8.72 66.64 8.47L66.64 8.47L66.64 8.47Q66.15 8.22 65.62 8.22L65.62 8.22L65.62 8.22Q65.08 8.22 64.77 8.40L64.77 8.40L64.77 8.40Q64.46 8.58 64.28 8.88L64.28 8.88L64.28 8.88Q63.97 9.40 63.97 10.18L63.97 10.18L63.97 10.18Q63.97 10.96 64.11 11.49L64.11 11.49L64.11 11.49Q64.24 12.02 64.54 12.43L64.54 12.43L64.54 12.43Q65.18 13.30 66.42 13.30L66.42 13.30L66.42 13.30Q66.68 13.30 66.94 13.14L66.94 13.14L66.94 13.14Q67.44 12.85 67.44 12.60L67.44 12.60ZM75.86 12.82L75.86 12.82L75.86 12.82Q74.92 13.86 73.53 14.12L73.53 14.12L73.53 14.12Q73.21 14.18 72.74 14.18L72.74 14.18L72.74 14.18Q72.27 14.18 71.85 13.91L71.85 13.91L71.85 13.91Q71.44 13.65 71.17 13.23L71.17 13.23L71.17 13.23Q70.66 12.43 70.66 11.27L70.66 11.27L70.66 11.27Q70.66 10.50 71.25 9.57L71.25 9.57L71.25 9.57Q71.83 8.65 72.65 8.04L72.65 8.04L72.65 8.04Q73.54 7.38 74.33 7.38L74.33 7.38L74.33 7.38Q74.74 7.38 75.02 7.68L75.02 7.68L75.02 7.68Q75.28 7.98 75.28 8.35L75.28 8.35L75.28 8.35Q75.28 8.73 75.12 9.05L75.12 9.05L75.12 9.05Q74.96 9.37 74.69 9.67L74.69 9.67L74.69 9.67Q74.43 9.97 74.09 10.24L74.09 10.24L74.09 10.24Q73.75 10.52 73.40 10.76L73.40 10.76L73.40 10.76Q72.90 11.10 72.14 11.53L72.14 11.53L72.14 11.53Q72.36 12.36 72.91 12.81L72.91 12.81L72.91 12.81Q73.47 13.25 74.34 13.25L74.34 13.25L74.34 13.25Q75.08 13.25 75.86 12.82ZM73.79 10.08L73.79 10.08L73.79 10.08Q73.98 9.78 73.98 9.50L73.98 9.50L73.98 9.50Q73.98 9.22 73.92 9.03L73.92 9.03L73.92 9.03Q73.86 8.83 73.74 8.68L73.74 8.68L73.74 8.68Q73.47 8.34 73.05 8.34L73.05 8.34L73.05 8.34Q72.01 8.34 72.01 10.46L72.01 10.46L72.01 10.46Q72.01 10.83 72.07 11.20L72.07 11.20L72.07 11.20Q73.27 10.87 73.79 10.08Z"></path></g><!----><g data-v-423bf9ae="" id="6e02f738-6c8e-4235-a484-d91d8ec28c67" transform="matrix(1.0580642499427084,0,0,1.0580642499427084,91.44284590204649,-7.433739962576858)" stroke="none" fill="white"><path d="M81.266 44.171l-2.323-10.336-5.013-7.827-7.821-6.104 5.493 7.507 4.019 7.03 2.156 9.677-.605 9.621-3.621 8.403-5.435 7.369-6.041 6.319 7.902-4.764 6.558-7.156 3.988-9.141z"></path><path d="M88.123 25.541L83.181 16.5l-6.148-4.295 4.758 5.616 4.285 8.364 1.43 10.802-.446 11.351-3.326 9.269-6.162 11.64 7.626-9.979 4.131-10.411.448-11.927z"></path><path d="M80.307 27.759l2.719 8.309 1.373 10.521.324-10.787-2.621-9.31-7.824-9.656-7.854-6.377L56.291 7.47l-8.831.017 8.231 1.672 9.729 3.52 7.487 6.005z"></path><path d="M92.225 30.156l.309 7.482-.699 11.984-3.306 9.951-3.806 6.337-5.275 5.717-5.515 5.319 2.786-6.291-10.721 6.464-6.618.383L62.438 70l-8.413 2.172 3.959-4.86 4.596-9.694-6.39 1.793 4.322-7.435 2.3-9.143-5.326 2.24.677-4.476-.964-4.641 1.522.402 3.13 2.802-2.242-5.53-3.512-4.222-5.044-4.296-5.156-3.026-4.744-1.733-3.824-.587 4.643-3.33 4.327-6.644-5.911 4.48-4.465 2.121.595-2.312.096-3.335-3.688 6.19-4.599 2.473-3.857 3.765-7.346 2.208-2.208 3.477-2.681 1.186-2.578.262-4.312 2.25 1.181 3.616 3.135 3.231.76-4.134 1.298.463.63-1.565 3.737-1.633 3.573.825-5.696 3.551-1.747 2.151 6.622-3.04-2.406 5.316-3.688-.696.648 2.547 1.323 1.477 2.967 1.531 2.428-4.15 3.661-3.306 4.454-1.036 5.082.41 3.105 1.107 4.422-1.527 2.354-1.289-1.771 1.78-2.619 2.034-2.276 1.031.371 3.328-1.011 3.465 6.373-.349-3.134 1.375-3.448.842-2.119 5.262 2.767.795 4.497.733-4.852.701-3.322-.351-3.559 3.741 3.76 1.875 4.185 1.212-4.537.215-5.888-1.522-6.748 4.272-1.719 8.294 2.839-2.553 2.432 6.996 5.415 6.84 6.874 4.259.133-3.323 5.598 2.715 7.745 1.915 10.827.543-4.45-3.633 10.782-2.027 8.855-4.315 7.58-7.116 4.941-7.23 3.655-7.116 2.877-10.816.411-12.637.001-.02-2.428-7.465zM20.987 28.78l-2.096.893.959-2.383 4.64-1.22-3.503 2.71zm16.733-2.483l-5.159.23 1.755-2.659 4.437.186 5 1.408 5.743 2.729 6 5.575-6.506-4.205-5.748-2.329-5.522-.935z"></path></g><!----></svg>